<?xml version="1.0" encoding="utf-8"?>
<!-- Generator: Adobe Illustrator 16.0.0, SVG Export Plug-In . SVG Version: 6.00 Build 0)  -->
<!DOCTYPE svg PUBLIC "-//W3C//DTD SVG 1.1//EN" "http://www.w3.org/Graphics/SVG/1.1/DTD/svg11.dtd">
<svg version="1.1" id="Layer_1" xmlns="http://www.w3.org/2000/svg" xmlns:xlink="http://www.w3.org/1999/xlink" x="0px" y="0px"
	 width="30px" height="26px" viewBox="0 0 30 26" enable-background="new 0 0 30 26" xml:space="preserve">
<path d="M29,11.725H3.308l9.766-10.027c0.385-0.396,0.377-1.029-0.02-1.414c-0.396-0.385-1.028-0.377-1.414,0.019L0.283,11.963
	c-0.378,0.388-0.378,1.007,0,1.396l12.015,12.338C12.494,25.899,12.754,26,13.015,26c0.252,0,0.503-0.095,0.697-0.283
	c0.396-0.386,0.404-1.019,0.02-1.414L3.431,13.725H29c0.553,0,1-0.448,1-1S29.553,11.725,29,11.725z"/>
</svg>
