<?xml version="1.0" encoding="utf-8"?>
<!-- Generator: Adobe Illustrator 16.0.0, SVG Export Plug-In . SVG Version: 6.00 Build 0)  -->
<!DOCTYPE svg PUBLIC "-//W3C//DTD SVG 1.1//EN" "http://www.w3.org/Graphics/SVG/1.1/DTD/svg11.dtd">
<svg version="1.1" id="Layer_1" xmlns="http://www.w3.org/2000/svg" xmlns:xlink="http://www.w3.org/1999/xlink" x="0px" y="0px"
	 width="18px" height="16px" viewBox="0 0 18 16" enable-background="new 0 0 18 16" xml:space="preserve">
<path fill="#333333" d="M17.705,12.033c-1.637-0.927-2.652-2.749-2.652-4.755V6.409c0-0.035-0.005-0.07-0.01-0.103
	C14.964,2.814,12.283,0,9,0C5.7,0,3.007,2.845,2.957,6.363C2.951,6.395,2.949,6.427,2.949,6.46v0.868
	c0,2.008-1.017,3.83-2.653,4.757c-0.232,0.13-0.345,0.398-0.275,0.651c0.068,0.254,0.303,0.43,0.568,0.43h0.001l5.128-0.016
	C5.933,14.754,7.315,16,9,16c1.693,0,3.079-1.256,3.285-2.87l5.129-0.015c0.267-0.001,0.498-0.178,0.567-0.431
	C18.049,12.432,17.935,12.164,17.705,12.033z M9,15.051c-1.156,0-2.116-0.822-2.32-1.904l4.642-0.014
	C11.125,14.221,10.161,15.051,9,15.051z M1.753,12.213c1.353-1.184,2.158-2.965,2.158-4.885v-0.83l0.008-0.036L3.92,6.376
	C3.963,3.383,6.243,0.949,9,0.949c2.734,0,5.012,2.413,5.08,5.378l0.002,0.027l0.008,0.055v0.869c0,1.924,0.809,3.708,2.166,4.891
	L1.753,12.213z"/>
</svg>
