<?xml version="1.0" encoding="utf-8"?>
<!-- Generator: Adobe Illustrator 16.0.0, SVG Export Plug-In . SVG Version: 6.00 Build 0)  -->
<!DOCTYPE svg PUBLIC "-//W3C//DTD SVG 1.1//EN" "http://www.w3.org/Graphics/SVG/1.1/DTD/svg11.dtd">
<svg version="1.1" id="Layer_1" xmlns="http://www.w3.org/2000/svg" xmlns:xlink="http://www.w3.org/1999/xlink" x="0px" y="0px"
	 width="64px" height="52px" viewBox="0 0 64 52" enable-background="new 0 0 64 52" xml:space="preserve">
<g>
	<path fill="#333333" d="M59.145,1.157H36.973c-2.074,0-3.902,1.064-4.972,2.675c-1.07-1.61-2.898-2.675-4.973-2.675h-9.08H7.961
		H4.856c-1.89,0-3.427,1.288-3.427,2.872v39.963c0,1.584,1.537,2.875,3.427,2.875l22.172,0.008c2.188,0,3.968,1.781,3.968,3.969
		h0.009h1.991h0.008c0-2.188,1.781-3.969,3.969-3.969l22.172-0.008c1.889,0,3.426-1.291,3.426-2.875V4.029
		C62.57,2.445,61.033,1.157,59.145,1.157z M15.948,3.157V16.26l-2.993-1.995L9.961,16.26V3.157H15.948z M28.028,44.959v-0.092H4.856
		c-0.816,0-1.427-0.463-1.427-0.875V4.029c0-0.412,0.61-0.872,1.427-0.872h3.105v16.84l4.993-3.327l4.993,3.327V3.157h9.08
		c2.188,0,3.968,1.779,3.968,3.967v39.285C30.174,45.674,29.161,45.15,28.028,44.959z M60.57,43.992
		c0,0.412-0.609,0.875-1.426,0.875H36.973l-1,0.008v0.084c-1.137,0.193-2.154,0.719-2.977,1.459V7.124h0.008
		c0-2.188,1.781-3.967,3.969-3.967h22.172c0.816,0,1.426,0.46,1.426,0.872V43.992z"/>
	<rect x="8.961" y="28.082" fill="#333333" width="16.501" height="2"/>
	<rect x="8.961" y="33.43" fill="#333333" width="16.501" height="2"/>
	<rect x="38.537" y="22.736" fill="#333333" width="16.502" height="2"/>
	<rect x="38.537" y="28.082" fill="#333333" width="16.502" height="2"/>
	<rect x="38.537" y="33.43" fill="#333333" width="16.502" height="2"/>
	<path fill="#333333" d="M41.84,16.089h3.287l0.697,2.039h1.447l-3.094-8.531h-1.354l-3.135,8.531h1.447L41.84,16.089z M43.48,11.32
		h0.018l1.242,3.627h-2.508L43.48,11.32z"/>
	<polygon fill="#333333" points="50.061,17.273 51.443,17.273 51.443,14.736 53.67,14.736 53.67,13.435 51.443,13.435 
		51.443,11.062 50.061,11.062 50.061,13.435 47.822,13.435 47.822,14.736 50.061,14.736 	"/>
</g>
</svg>
