<?xml version="1.0" encoding="utf-8"?>
<!-- Generator: Adobe Illustrator 16.0.0, SVG Export Plug-In . SVG Version: 6.00 Build 0)  -->
<!DOCTYPE svg PUBLIC "-//W3C//DTD SVG 1.1//EN" "http://www.w3.org/Graphics/SVG/1.1/DTD/svg11.dtd">
<svg version="1.1" id="Layer_1" xmlns="http://www.w3.org/2000/svg" xmlns:xlink="http://www.w3.org/1999/xlink" x="0px" y="0px"
	 width="64px" height="52px" viewBox="0 0 64 52" enable-background="new 0 0 64 52" xml:space="preserve">
<g>
	<path fill="#333333" d="M60.116,39.352V5.915c0-2.131-1.735-3.865-3.866-3.865h-3.707H11.458H7.75
		c-2.132,0-3.867,1.734-3.867,3.865v33.437H0v3.864c0,3.715,3.021,6.734,6.735,6.734h50.531c3.714,0,6.734-3.02,6.734-6.734v-3.864
		H60.116z M5.876,5.915c0-1.033,0.841-1.873,1.874-1.873h3.707h41.085h3.707c1.033,0,1.873,0.84,1.873,1.873v33.437h-13.65v-3.623
		c0-3.66-4.868-5.818-8.732-6.749c1.804-1.205,2.994-3.254,2.994-5.575V21.91c0-3.699-3.021-6.709-6.734-6.709
		s-6.735,3.01-6.735,6.709v1.494c0,2.321,1.191,4.37,2.995,5.575c-3.865,0.931-8.733,3.089-8.733,6.749v3.623H5.876V5.915z
		 M32,28.12c-2.615,0-4.742-2.115-4.742-4.716V21.91c0-2.601,2.127-4.717,4.742-4.717s4.742,2.116,4.742,4.717v1.494
		C36.742,26.005,34.615,28.12,32,28.12z M42.48,35.729v3.623H21.52v-3.623c0-3.065,7.354-5.305,10.48-5.305
		S42.48,32.663,42.48,35.729z M62.008,43.216c0,2.615-2.127,4.742-4.742,4.742H6.735c-2.615,0-4.742-2.127-4.742-4.742v-1.872
		h60.015V43.216z"/>
	<rect x="28.414" y="43.655" fill="#333333" width="7.172" height="1.993"/>
</g>
</svg>
