<?xml version="1.0" encoding="utf-8"?>
<!-- Generator: Adobe Illustrator 16.0.0, SVG Export Plug-In . SVG Version: 6.00 Build 0)  -->
<!DOCTYPE svg PUBLIC "-//W3C//DTD SVG 1.1//EN" "http://www.w3.org/Graphics/SVG/1.1/DTD/svg11.dtd">
<svg version="1.1" id="Layer_1" xmlns="http://www.w3.org/2000/svg" xmlns:xlink="http://www.w3.org/1999/xlink" x="0px" y="0px"
	 width="64px" height="52px" viewBox="0 0 64 52" enable-background="new 0 0 64 52" xml:space="preserve">
<g>
	<path fill="#333333" d="M31.153,27.149c1.811-1.209,3.006-3.266,3.006-5.596v-1.5c0-3.713-3.032-6.734-6.76-6.734
		s-6.76,3.021-6.76,6.734v1.5c0,2.33,1.195,4.387,3.006,5.596c-3.879,0.934-8.766,3.1-8.766,6.773v3.757h2v-3.757
		c0-3.075,7.382-5.324,10.52-5.324s10.52,2.249,10.52,5.324v3.757h2v-3.757C39.919,30.249,35.032,28.083,31.153,27.149z
		 M22.64,20.054c0-2.61,2.135-4.734,4.76-4.734s4.76,2.124,4.76,4.734v1.5c0,2.61-2.135,4.734-4.76,4.734s-4.76-2.124-4.76-4.734
		V20.054z"/>
	<path fill="#333333" d="M62.563,49.119L48.96,40.483c6.785-10.094,5.725-23.934-3.192-32.851
		c-4.898-4.899-11.422-7.597-18.368-7.597S13.93,2.734,9.031,7.633C-1.096,17.76-1.096,34.239,9.032,44.367
		c4.898,4.898,11.421,7.597,18.367,7.597s13.469-2.698,18.367-7.597c0.724-0.724,1.39-1.482,2.01-2.267l13.715,8.707L62.563,49.119z
		 M44.353,42.953c-4.521,4.521-10.541,7.011-16.953,7.011s-12.433-2.49-16.953-7.011c-9.348-9.349-9.349-24.558-0.001-33.906
		c4.521-4.521,10.542-7.011,16.954-7.011s12.433,2.49,16.954,7.011C53.701,18.395,53.7,33.604,44.353,42.953z"/>
</g>
</svg>
