<?xml version="1.0" encoding="utf-8"?>
<!-- Generator: Adobe Illustrator 16.0.0, SVG Export Plug-In . SVG Version: 6.00 Build 0)  -->
<!DOCTYPE svg PUBLIC "-//W3C//DTD SVG 1.1//EN" "http://www.w3.org/Graphics/SVG/1.1/DTD/svg11.dtd">
<svg version="1.1" id="Layer_1" xmlns="http://www.w3.org/2000/svg" xmlns:xlink="http://www.w3.org/1999/xlink" x="0px" y="0px"
	 width="32px" height="28px" viewBox="0 0 32 28" enable-background="new 0 0 32 28" xml:space="preserve">
<g>
	<path fill="#FFFFFF" d="M15.188,20.395c0.037,0.027,0.079,0.039,0.119,0.063s0.077,0.045,0.12,0.063
		c0.086,0.035,0.174,0.054,0.264,0.063c0.039,0.005,0.075,0.025,0.115,0.025c0.21,0,0.421-0.064,0.602-0.203l12.232-9.295
		c0.439-0.334,0.527-0.966,0.194-1.41c-0.332-0.444-0.96-0.534-1.399-0.197L16.85,17.547V0h-2v17.614L4.161,9.491
		c-0.441-0.336-1.068-0.249-1.4,0.197c-0.333,0.443-0.245,1.076,0.195,1.41L15.188,20.395z"/>
	<polygon fill="#FFFFFF" points="30,21.708 30,25.986 2,25.986 2,21.708 0,21.708 0,25.986 0,26.993 0,28 32,28 32,26.993 
		32,25.986 32,21.708 	"/>
</g>
</svg>
