<?xml version="1.0" encoding="utf-8"?>
<!-- Generator: Adobe Illustrator 16.0.0, SVG Export Plug-In . SVG Version: 6.00 Build 0)  -->
<!DOCTYPE svg PUBLIC "-//W3C//DTD SVG 1.1//EN" "http://www.w3.org/Graphics/SVG/1.1/DTD/svg11.dtd">
<svg version="1.1" id="Layer_1" xmlns="http://www.w3.org/2000/svg" xmlns:xlink="http://www.w3.org/1999/xlink" x="0px" y="0px"
	 width="32px" height="28px" viewBox="0 0 32 28" enable-background="new 0 0 32 28" xml:space="preserve">
<g>
	<path fill="#787878" d="M15.188,20.394c0.037,0.028,0.079,0.04,0.119,0.063s0.077,0.045,0.12,0.063
		c0.086,0.034,0.174,0.053,0.264,0.062c0.039,0.005,0.075,0.026,0.115,0.026c0.21,0,0.421-0.065,0.602-0.203l12.232-9.296
		c0.44-0.334,0.528-0.966,0.195-1.41c-0.332-0.444-0.96-0.534-1.4-0.197l-10.585,8.045V0h-2v17.614L4.161,9.491
		c-0.441-0.336-1.068-0.249-1.4,0.197c-0.333,0.443-0.245,1.076,0.195,1.41L15.188,20.394z"/>
	<polygon fill="#787878" points="30,21.708 30,25.986 2,25.986 2,21.708 0,21.708 0,25.986 0,26.993 0,28 32,28 32,26.993 
		32,25.986 32,21.708 	"/>
</g>
</svg>
