<?xml version="1.0" encoding="utf-8"?>
<!-- Generator: Adobe Illustrator 16.0.0, SVG Export Plug-In . SVG Version: 6.00 Build 0)  -->
<!DOCTYPE svg PUBLIC "-//W3C//DTD SVG 1.1//EN" "http://www.w3.org/Graphics/SVG/1.1/DTD/svg11.dtd">
<svg version="1.1" id="Layer_1" xmlns="http://www.w3.org/2000/svg" xmlns:xlink="http://www.w3.org/1999/xlink" x="0px" y="0px"
	 width="12px" height="24px" viewBox="0 0 12 24" enable-background="new 0 0 12 24" xml:space="preserve">
<path fill="#989898" d="M6,24c-3.309,0-6-2.917-6-6.501V4.96c0-0.574,0.429-1.039,0.958-1.039c0.53,0,0.959,0.465,0.959,1.039
	v12.539c0,2.438,1.831,4.424,4.083,4.424s4.083-1.985,4.083-4.424V5.012c0-1.619-1.215-2.936-2.708-2.936
	c-1.494,0-2.709,1.316-2.709,2.936v10.943c0,0.79,0.593,1.432,1.321,1.432c0.729,0,1.322-0.642,1.322-1.432V7.111
	c0-0.573,0.429-1.038,0.958-1.038c0.53,0,0.958,0.465,0.958,1.038v8.844c0,1.936-1.452,3.509-3.238,3.509
	c-1.785,0-3.237-1.573-3.237-3.509V5.012C2.75,2.248,4.824,0,7.375,0C9.925,0,12,2.248,12,5.012v12.487C12,21.083,9.309,24,6,24z"/>
</svg>
