<?xml version="1.0" encoding="utf-8"?>
<!-- Generator: Adobe Illustrator 16.0.0, SVG Export Plug-In . SVG Version: 6.00 Build 0)  -->
<!DOCTYPE svg PUBLIC "-//W3C//DTD SVG 1.1//EN" "http://www.w3.org/Graphics/SVG/1.1/DTD/svg11.dtd">
<svg version="1.1" id="Layer_1" xmlns="http://www.w3.org/2000/svg" xmlns:xlink="http://www.w3.org/1999/xlink" x="0px" y="0px"
	 width="28px" height="24px" viewBox="0 0 28 24" enable-background="new 0 0 28 24" xml:space="preserve">
<g>
	<path fill="#8A8A8A" d="M20.536,1.296c1.471,0,2.891,0.446,3.896,1.224c2.619,2.024,2.326,5.427,2.176,6.422
		C26.003,12.911,22.9,15.854,14,22.393C5.1,15.854,1.997,12.91,1.393,8.943C1.241,7.948,0.95,4.543,3.568,2.52
		c1.005-0.778,2.426-1.224,3.896-1.224c2.3,0,4.279,1.075,5.431,2.949L14,6.042l1.105-1.796C16.257,2.371,18.234,1.296,20.536,1.296
		 M20.536,0C18.098,0,15.546,1.051,14,3.566C12.454,1.052,9.902,0,7.464,0C5.701,0,3.996,0.551,2.775,1.495
		C0.176,3.504-0.25,6.766,0.111,9.138C0.824,13.816,4.587,17.119,14,24c9.414-6.881,13.176-10.184,13.889-14.862
		c0.362-2.372-0.063-5.634-2.662-7.643C24.005,0.551,22.3,0,20.536,0L20.536,0z"/>
</g>
</svg>
