<?xml version="1.0" encoding="utf-8"?>
<!-- Generator: Adobe Illustrator 16.0.0, SVG Export Plug-In . SVG Version: 6.00 Build 0)  -->
<!DOCTYPE svg PUBLIC "-//W3C//DTD SVG 1.1//EN" "http://www.w3.org/Graphics/SVG/1.1/DTD/svg11.dtd">
<svg version="1.1" id="Layer_1" xmlns="http://www.w3.org/2000/svg" xmlns:xlink="http://www.w3.org/1999/xlink" x="0px" y="0px"
	 width="132px" height="104px" viewBox="0 0 132 104" enable-background="new 0 0 132 104" xml:space="preserve">
<path fill="#B3B3B3" d="M130.938,57.411L112.43,40.688V14.521c0-1.782-1.466-3.227-3.273-3.227s-3.273,1.444-3.273,3.227v20.25
	L85.396,16.259L68.329,0.838c-0.047-0.043-0.102-0.071-0.15-0.11c-0.089-0.072-0.177-0.14-0.271-0.2
	c-0.09-0.058-0.18-0.109-0.273-0.157c-0.096-0.049-0.19-0.096-0.289-0.135c-0.101-0.04-0.201-0.073-0.304-0.103
	c-0.099-0.029-0.198-0.055-0.299-0.073c-0.104-0.021-0.209-0.034-0.315-0.044C66.323,0.006,66.22,0,66.118,0
	c-0.105,0-0.209,0.006-0.313,0.016C65.7,0.026,65.596,0.039,65.492,0.06C65.39,0.078,65.29,0.104,65.19,0.134
	c-0.103,0.029-0.202,0.063-0.302,0.102c-0.099,0.04-0.195,0.086-0.29,0.136c-0.094,0.048-0.185,0.1-0.273,0.157
	c-0.094,0.061-0.183,0.128-0.271,0.2c-0.049,0.038-0.103,0.067-0.15,0.11L49.285,14.067l-25.751,23.3L1.06,57.703
	c-1.332,1.205-1.42,3.247-0.198,4.56c0.646,0.693,1.527,1.046,2.413,1.046c0.791,0,1.584-0.281,2.213-0.85l22.369-20.241
	l25.917-23.451L66.12,7.596l14.825,13.396l24.938,22.536v30.235v23.782H84.466V78.539v-7.152c0-6.016-2.917-11.359-7.416-14.771
	c-3.191-2.42-7.171-3.876-11.5-3.876c-5.105,0-9.736,2.014-13.142,5.267c-3.552,3.392-5.771,8.133-5.771,13.381v7.152v19.006H26.118
	V78.586V60.081c0-1.782-1.466-3.228-3.274-3.228s-3.274,1.445-3.274,3.228v18.505v22.187c0,0.889,0.365,1.692,0.955,2.276
	c0.592,0.588,1.413,0.951,2.319,0.951h27.067c1.036,0,1.949-0.484,2.549-1.225c0.446-0.552,0.724-1.242,0.724-2.003V78.539v-7.152
	c0-3.276,1.325-6.25,3.467-8.444c2.251-2.305,5.405-3.748,8.899-3.748c2.977,0,5.71,1.043,7.847,2.775
	c2.758,2.238,4.521,5.628,4.521,9.417v7.152v22.233c0,0.997,0.469,1.877,1.188,2.468c0.567,0.468,1.289,0.76,2.086,0.76h27.964
	c0.907,0,1.727-0.363,2.319-0.95c0.59-0.584,0.954-1.389,0.954-2.277v-27.01V50.937v-1.493l14.084,12.726
	c0.628,0.568,1.421,0.849,2.211,0.849c0.887,0,1.769-0.353,2.414-1.047C132.36,60.657,132.271,58.614,130.938,57.411z"/>
</svg>
