<?xml version="1.0" encoding="utf-8"?>
<!-- Generator: Adobe Illustrator 16.0.0, SVG Export Plug-In . SVG Version: 6.00 Build 0)  -->
<!DOCTYPE svg PUBLIC "-//W3C//DTD SVG 1.1//EN" "http://www.w3.org/Graphics/SVG/1.1/DTD/svg11.dtd">
<svg version="1.1" id="Layer_1" xmlns="http://www.w3.org/2000/svg" xmlns:xlink="http://www.w3.org/1999/xlink" x="0px" y="0px"
	 width="42px" height="42px" viewBox="0 0 42 42" enable-background="new 0 0 42 42" xml:space="preserve">
<g>
	<path fill="#E55C4E" d="M21,0C9.402,0,0,9.4,0,20.999S9.402,42,21,42c11.597,0,21-9.402,21-21.001S32.598,0,21,0z M21,40
		C10.523,40,2,31.477,2,20.999C2,10.523,10.523,2,21,2c10.476,0,19,8.523,19,18.999C40,31.477,31.477,40,21,40z"/>
	<path fill="#E55C4E" d="M25.065,8.891h-8.256v6.986h-6.097V31.88h6.097h1.818h13.55V14.353h-7.112V8.891z M16.627,29.88h-3.916
		V17.877h3.916V29.88z M30.178,16.353v3.034h-6.741v2h6.741v2.698h-6.741v2h6.741v3.795H18.809V10.891h4.256v3.462v2h2H30.178z"/>
</g>
</svg>
