<?xml version="1.0" encoding="utf-8"?>
<!-- Generator: Adobe Illustrator 16.0.0, SVG Export Plug-In . SVG Version: 6.00 Build 0)  -->
<!DOCTYPE svg PUBLIC "-//W3C//DTD SVG 1.1//EN" "http://www.w3.org/Graphics/SVG/1.1/DTD/svg11.dtd">
<svg version="1.1" id="Layer_1" xmlns="http://www.w3.org/2000/svg" xmlns:xlink="http://www.w3.org/1999/xlink" x="0px" y="0px"
	 width="42px" height="42px" viewBox="0 0 42 42" enable-background="new 0 0 42 42" xml:space="preserve">
<g>
	<path fill="#B6832E" d="M21,0C9.402,0,0,9.4,0,20.999S9.402,42,21,42c11.599,0,21-9.402,21-21.001S32.599,0,21,0z M21,40.046
		c-10.502,0-19.046-8.545-19.046-19.047C1.954,10.498,10.498,1.954,21,1.954c10.503,0,19.047,8.543,19.047,19.045
		C40.047,31.501,31.503,40.046,21,40.046z"/>
	<path fill="#B6832E" d="M10.712,31.754h20.577V11.685H10.712V31.754z M29.336,29.8H16.938V13.639h12.398V29.8z M12.666,13.639
		h2.317V29.8h-2.317V13.639z"/>
	<rect x="19.095" y="18.034" fill="#B6832E" width="8.384" height="1.954"/>
</g>
</svg>
