<?xml version="1.0" encoding="utf-8"?>
<!-- Generator: Adobe Illustrator 16.0.0, SVG Export Plug-In . SVG Version: 6.00 Build 0)  -->
<!DOCTYPE svg PUBLIC "-//W3C//DTD SVG 1.1//EN" "http://www.w3.org/Graphics/SVG/1.1/DTD/svg11.dtd">
<svg version="1.1" id="Layer_1" xmlns="http://www.w3.org/2000/svg" xmlns:xlink="http://www.w3.org/1999/xlink" x="0px" y="0px"
	 width="42px" height="42px" viewBox="0 0 42 42" enable-background="new 0 0 42 42" xml:space="preserve">
<g>
	<path fill="#989898" d="M21,0C9.402,0,0,9.4,0,20.999S9.402,42,21,42c11.597,0,21-9.402,21-21.001S32.598,0,21,0z M21,40.046
		c-10.502,0-19.046-8.545-19.046-19.047C1.954,10.498,10.499,1.954,21,1.954c10.501,0,19.045,8.543,19.045,19.045
		C40.046,31.501,31.502,40.046,21,40.046z"/>
	<path fill="#989898" d="M28.254,11.28l-1.766-0.836l-2.61,5.507h-5.755l-2.61-5.507l-1.766,0.836l2.214,4.671h-4.853V31.34h19.785
		V15.951h-4.852L28.254,11.28z M20.023,17.905v3.91h-6.961v-3.91H20.023z M13.062,23.77h6.961v5.616h-6.961V23.77z M21.978,29.386
		V23.77h6.961v5.616H21.978z M28.938,21.815h-6.961v-3.91h6.961V21.815z"/>
</g>
</svg>
