<?xml version="1.0" encoding="utf-8"?>
<!-- Generator: Adobe Illustrator 16.0.0, SVG Export Plug-In . SVG Version: 6.00 Build 0)  -->
<!DOCTYPE svg PUBLIC "-//W3C//DTD SVG 1.1//EN" "http://www.w3.org/Graphics/SVG/1.1/DTD/svg11.dtd">
<svg version="1.1" id="Layer_1" xmlns="http://www.w3.org/2000/svg" xmlns:xlink="http://www.w3.org/1999/xlink" x="0px" y="0px"
	 width="42px" height="42px" viewBox="0 0 42 42" enable-background="new 0 0 42 42" xml:space="preserve">
<g>
	<path fill="#249A85" d="M21,0C9.403,0,0,9.4,0,20.999S9.403,42,21,42c11.598,0,21-9.402,21-21.001S32.599,0,21,0z M21,39.92
		c-10.433,0-18.92-8.488-18.92-18.921C2.08,10.567,10.568,2.08,21,2.08c10.432,0,18.919,8.487,18.919,18.919
		C39.92,31.432,31.433,39.92,21,39.92z"/>
	<path fill="#249A85" d="M27.852,19.792c-1.305,0-2.305,0.416-3,1.248s-1.043,2.104-1.043,3.813c0,1.688,0.342,2.951,1.025,3.79
		c0.684,0.84,1.689,1.26,3.018,1.26c1.305,0,2.303-0.414,2.994-1.242c0.689-0.828,1.035-2.102,1.035-3.818
		c0-1.688-0.34-2.95-1.018-3.79C30.184,20.212,29.18,19.792,27.852,19.792z M29.438,27.475c-0.271,0.604-0.801,0.905-1.586,0.905
		c-0.816,0-1.355-0.302-1.615-0.905c-0.26-0.603-0.389-1.477-0.389-2.622c0-1.152,0.137-2.03,0.412-2.633
		c0.275-0.604,0.805-0.904,1.592-0.904c0.785,0,1.314,0.297,1.586,0.893c0.27,0.596,0.406,1.474,0.406,2.634
		C29.844,25.994,29.707,26.872,29.438,27.475z"/>
	<polygon fill="#249A85" points="25.139,12.521 16.207,29.57 18.096,29.57 27.027,12.521 	"/>
	<path fill="#249A85" d="M19.401,17.25c0-1.687-0.34-2.95-1.019-3.79c-0.679-0.839-1.683-1.259-3.011-1.259
		c-1.305,0-2.305,0.416-3,1.248c-0.695,0.832-1.042,2.103-1.042,3.813c0,1.688,0.341,2.95,1.024,3.79s1.689,1.26,3.017,1.26
		c1.305,0,2.303-0.414,2.994-1.243C19.056,20.24,19.401,18.968,19.401,17.25z M16.957,19.884c-0.271,0.603-0.8,0.904-1.586,0.904
		c-0.817,0-1.355-0.302-1.614-0.904c-0.26-0.603-0.389-1.478-0.389-2.622c0-1.152,0.137-2.03,0.412-2.634
		c0.275-0.603,0.805-0.904,1.591-0.904s1.315,0.298,1.586,0.894c0.271,0.595,0.406,1.473,0.406,2.633
		C17.363,18.403,17.228,19.281,16.957,19.884z"/>
</g>
</svg>
