<?xml version="1.0" encoding="utf-8"?>
<!-- Generator: Adobe Illustrator 16.0.0, SVG Export Plug-In . SVG Version: 6.00 Build 0)  -->
<!DOCTYPE svg PUBLIC "-//W3C//DTD SVG 1.1//EN" "http://www.w3.org/Graphics/SVG/1.1/DTD/svg11.dtd">
<svg version="1.1" id="Layer_1" xmlns="http://www.w3.org/2000/svg" xmlns:xlink="http://www.w3.org/1999/xlink" x="0px" y="0px"
	 width="42px" height="42px" viewBox="0 0 42 42" enable-background="new 0 0 42 42" xml:space="preserve">
<g>
	<path fill="#989898" d="M21.001,0C9.404,0,0,9.4,0,20.999S9.404,42,21.001,42C32.599,42,42,32.598,42,20.999S32.599,0,21.001,0z
		 M21.001,39.968c-10.46,0-18.969-8.51-18.969-18.969c0-10.458,8.509-18.967,18.969-18.967c10.458,0,18.967,8.508,18.967,18.967
		C39.968,31.458,31.459,39.968,21.001,39.968z"/>
	<path fill="#989898" d="M24.507,20.013v-0.084c0.823-0.329,1.468-0.783,1.934-1.364s0.698-1.238,0.698-1.973
		c0-0.657-0.154-1.23-0.466-1.716c-0.311-0.486-0.801-0.88-1.473-1.181c-0.612-0.273-1.254-0.445-1.921-0.52
		c-0.667-0.072-1.668-0.109-3.003-0.109h-4.975v15.628h5.377c1.276,0,2.318-0.097,3.124-0.288c0.807-0.192,1.563-0.521,2.267-0.981
		c0.597-0.385,1.07-0.875,1.424-1.47c0.353-0.595,0.528-1.28,0.528-2.058c0-1.001-0.306-1.834-0.919-2.502
		C26.488,20.725,25.624,20.265,24.507,20.013z M17.795,14.839h2.393c0.873,0,1.556,0.021,2.052,0.063
		c0.495,0.042,0.944,0.158,1.348,0.347c0.336,0.161,0.58,0.379,0.73,0.655c0.15,0.277,0.228,0.604,0.228,0.982
		c0,0.483-0.08,0.888-0.241,1.217c-0.158,0.329-0.427,0.595-0.805,0.798c-0.396,0.21-0.777,0.348-1.146,0.415
		c-0.369,0.066-0.945,0.099-1.725,0.099h-2.834V14.839z M25.099,25.329c-0.218,0.348-0.563,0.656-1.032,0.93
		c-0.479,0.272-1.032,0.451-1.662,0.535c-0.629,0.084-1.49,0.126-2.582,0.126h-2.028v-5.773h2.834c0.856,0,1.518,0.025,1.983,0.073
		c0.466,0.049,0.896,0.162,1.29,0.336c0.612,0.266,1.021,0.59,1.222,0.971c0.202,0.381,0.303,0.865,0.303,1.453
		C25.427,24.533,25.317,24.983,25.099,25.329z"/>
</g>
</svg>
