<?xml version="1.0" encoding="utf-8"?>
<!-- Generator: Adobe Illustrator 16.0.0, SVG Export Plug-In . SVG Version: 6.00 Build 0)  -->
<!DOCTYPE svg PUBLIC "-//W3C//DTD SVG 1.1//EN" "http://www.w3.org/Graphics/SVG/1.1/DTD/svg11.dtd">
<svg version="1.1" id="Layer_1" xmlns="http://www.w3.org/2000/svg" xmlns:xlink="http://www.w3.org/1999/xlink" x="0px" y="0px"
	 width="42px" height="42px" viewBox="0 0 42 42" enable-background="new 0 0 42 42" xml:space="preserve">
<g>
	<path fill="#989898" d="M21,0C9.403,0,0,9.4,0,20.999S9.403,42,21,42c11.598,0,21-9.402,21-21.001S32.599,0,21,0z M21,39.968
		c-10.459,0-18.968-8.509-18.968-18.969C2.032,10.541,10.542,2.032,21,2.032c10.459,0,18.967,8.508,18.967,18.967
		C39.968,31.459,31.46,39.968,21,39.968z"/>
	<polygon fill="#989898" points="25.376,25.684 17.833,13.31 14.293,13.31 14.293,28.938 16.623,28.938 16.623,15.461 24.91,28.938 
		27.706,28.938 27.706,13.31 25.376,13.31 	"/>
</g>
</svg>
