<?xml version="1.0" encoding="utf-8"?>
<!-- Generator: Adobe Illustrator 16.0.0, SVG Export Plug-In . SVG Version: 6.00 Build 0)  -->
<!DOCTYPE svg PUBLIC "-//W3C//DTD SVG 1.1//EN" "http://www.w3.org/Graphics/SVG/1.1/DTD/svg11.dtd">
<svg version="1.1" id="Layer_1" xmlns="http://www.w3.org/2000/svg" xmlns:xlink="http://www.w3.org/1999/xlink" x="0px" y="0px"
	 width="42px" height="42px" viewBox="0 0 42 42" enable-background="new 0 0 42 42" xml:space="preserve">
<g>
	<path fill="#4567B0" d="M21,0C9.402,0,0,9.4,0,20.999S9.402,42,21,42c11.597,0,21-9.402,21-21.001S32.598,0,21,0z M21,40
		C10.523,40,2,31.477,2,20.999C2,10.523,10.523,2,21,2c10.476,0,19,8.523,19,18.999C40,31.477,31.477,40,21,40z"/>
	<rect x="16.97" y="23.665" fill="#4567B0" width="8.06" height="2"/>
	<path fill="#4567B0" d="M24.894,10.009h-2v2.034h-3.785v-2.034h-2v2.034h-6V31.34h19.785V12.043h-5.999V10.009z M22.894,14.043
		v3.841h-3.785v-3.841H22.894z M17.108,14.043v3.841h-4v-3.841H17.108z M13.108,29.34v-9.455h15.785v9.455H13.108z M28.893,14.043
		v3.841h-3.999v-3.841H28.893z"/>
</g>
</svg>
