<?xml version="1.0" encoding="utf-8"?>
<!-- Generator: Adobe Illustrator 16.0.0, SVG Export Plug-In . SVG Version: 6.00 Build 0)  -->
<!DOCTYPE svg PUBLIC "-//W3C//DTD SVG 1.1//EN" "http://www.w3.org/Graphics/SVG/1.1/DTD/svg11.dtd">
<svg version="1.1" id="Layer_1" xmlns="http://www.w3.org/2000/svg" xmlns:xlink="http://www.w3.org/1999/xlink" x="0px" y="0px"
	 width="66px" height="60px" viewBox="0 0 66 60" enable-background="new 0 0 66 60" xml:space="preserve">
<g>
	<path fill="#333333" d="M43.591,17.153c0.091-0.547,0.364-0.956,0.82-1.229c0.41-0.228,0.889-0.296,1.436-0.205
		c0.5,0.046,0.888,0.205,1.161,0.479c0.317,0.319,0.433,0.706,0.342,1.161l-4.646,18.858c-0.273,0.867-0.479,1.619-0.615,2.256
		c-0.092,0.592-0.137,1.07-0.137,1.436c0,0.955,0.342,1.73,1.025,2.322c0.683,0.594,1.662,0.889,2.938,0.889
		c1.048,0,2.188-0.227,3.417-0.684c1.184-0.455,2.368-1.094,3.554-1.912c2.276-1.73,4.1-4.078,5.466-7.039
		c1.457-3.051,2.187-6.286,2.187-9.703c0-6.194-2.278-11.183-6.833-14.964c-4.556-3.827-10.547-5.74-17.971-5.74
		c-3.873,0-7.426,0.547-10.659,1.64c-3.28,1.094-6.219,2.733-8.815,4.92c-3.509,2.87-6.15,6.242-7.927,10.113
		c-1.731,3.826-2.597,8.109-2.597,12.846c0,7.381,2.505,13.303,7.517,17.766c5.011,4.465,11.775,6.697,20.295,6.697
		c3.598,0,7.219-0.547,10.864-1.641c3.644-1.139,6.924-2.686,9.84-4.646c0.684-0.592,1.229-0.66,1.64-0.205
		c0.364,0.41,0.228,0.936-0.41,1.572c-3.188,2.414-6.628,4.236-10.317,5.467c-3.69,1.275-7.541,1.914-11.548,1.914
		c-4.329,0-8.269-0.547-11.821-1.641c-3.509-1.049-6.629-2.598-9.362-4.646c-3.462-2.643-6.036-5.693-7.721-9.156
		c-1.687-3.463-2.528-7.426-2.528-11.891c0-3.734,0.568-7.265,1.708-10.591c1.138-3.279,2.824-6.263,5.057-8.951
		c3.233-4.008,7.151-7.038,11.753-9.088c4.601-2.05,9.726-3.075,15.375-3.075c3.689,0,7.219,0.502,10.591,1.504
		c3.188,1.002,5.967,2.415,8.337,4.236c2.869,2.232,5.057,4.807,6.56,7.722c1.503,2.916,2.255,6.081,2.255,9.498
		c0,3.826-0.729,7.334-2.187,10.522c-1.413,3.189-3.44,5.83-6.082,7.926c-1.549,1.186-3.235,2.119-5.056,2.803
		c-1.823,0.684-3.622,1.023-5.398,1.023c-2.187,0-3.827-0.432-4.92-1.297c-1.094-0.865-1.64-2.119-1.64-3.758l0.137-1.23
		c-1.14,1.959-2.575,3.484-4.306,4.578c-1.731,1.139-3.599,1.707-5.603,1.707c-3.554,0-6.242-0.955-8.063-2.869
		c-1.776-1.914-2.665-4.668-2.665-8.268c0-5.284,1.548-9.726,4.647-13.325c3.051-3.553,6.74-5.329,11.069-5.329
		c2.187,0,4.007,0.478,5.466,1.435c1.504,1.003,2.597,2.46,3.28,4.373L43.591,17.153z M41.814,25.422
		c-0.502-2.277-1.412-4.009-2.733-5.193c-1.366-1.184-3.099-1.776-5.192-1.776c-3.509,0-6.423,1.549-8.746,4.646
		c-2.324,3.143-3.485,7.016-3.485,11.616c0,2.643,0.637,4.715,1.913,6.217c1.32,1.459,3.144,2.188,5.467,2.188
		c2.504,0,4.715-0.842,6.628-2.527c1.957-1.641,3.279-3.828,3.963-6.561L41.814,25.422z"/>
</g>
</svg>
