<?xml version="1.0" encoding="utf-8"?>
<!-- Generator: Adobe Illustrator 16.0.0, SVG Export Plug-In . SVG Version: 6.00 Build 0)  -->
<!DOCTYPE svg PUBLIC "-//W3C//DTD SVG 1.1//EN" "http://www.w3.org/Graphics/SVG/1.1/DTD/svg11.dtd">
<svg version="1.1" id="Layer_1" xmlns="http://www.w3.org/2000/svg" xmlns:xlink="http://www.w3.org/1999/xlink" x="0px" y="0px"
	 width="22px" height="19px" viewBox="0 0 22 19" enable-background="new 0 0 22 19" xml:space="preserve">
<path fill="#989898" d="M11,0.972c5.53,0,10.029,3.814,10.029,8.502c0,2.007-0.847,3.957-2.379,5.488
	c-0.477,0.471-0.57,1.202-0.226,1.782l0.225,0.374l-1.244-0.464c-0.163-0.061-0.334-0.092-0.508-0.092
	c-0.235,0-0.469,0.058-0.673,0.165c-1.57,0.816-3.376,1.248-5.224,1.248c-5.529,0-10.027-3.814-10.027-8.502
	C0.972,4.786,5.47,0.972,11,0.972 M11,0C4.935,0,0,4.25,0,9.475c0,5.224,4.935,9.474,11,9.474c2.004,0,3.965-0.47,5.672-1.357
	c0.069-0.036,0.146-0.055,0.225-0.055c0.058,0,0.115,0.01,0.17,0.03L20.908,19l-1.65-2.755c-0.113-0.19-0.084-0.435,0.074-0.591
	C21.053,13.936,22,11.741,22,9.475C22,4.25,17.066,0,11,0L11,0z"/>
<circle fill="#989898" cx="5.995" cy="9.645" r="1.35"/>
<circle fill="#989898" cx="11.314" cy="9.645" r="1.35"/>
<circle fill="#989898" cx="15.984" cy="9.645" r="1.35"/>
</svg>
