<?xml version="1.0" encoding="utf-8"?>
<!-- Generator: Adobe Illustrator 16.0.0, SVG Export Plug-In . SVG Version: 6.00 Build 0)  -->
<!DOCTYPE svg PUBLIC "-//W3C//DTD SVG 1.1//EN" "http://www.w3.org/Graphics/SVG/1.1/DTD/svg11.dtd">
<svg version="1.1" id="Layer_1" xmlns="http://www.w3.org/2000/svg" xmlns:xlink="http://www.w3.org/1999/xlink" x="0px" y="0px"
	 width="70px" height="70px" viewBox="0 0 70 70" enable-background="new 0 0 70 70" xml:space="preserve">
<circle fill="#1D8B93" cx="35" cy="35" r="35"/>
<path fill="#FFFFFF" d="M48.449,38.59c-0.031-0.029-0.072-0.041-0.106-0.065l-9.546-9.545c-0.389-0.39-1.02-0.39-1.408,0
	c-0.389,0.389-0.389,1.02,0,1.408l8.035,8.035H26.281V20.072c0-0.55-0.445-0.996-0.996-0.996s-0.997,0.446-0.997,0.996v19.265
	c0,0.455,0.312,0.823,0.729,0.942c0.143,0.079,0.299,0.137,0.475,0.137h19.474l-7.513,6.977c-0.418,0.39-0.418,1.02,0,1.41
	c0.209,0.193,0.484,0.291,0.759,0.291s0.549-0.098,0.759-0.291l9.454-8.779c0.001-0.002,0.003-0.002,0.005-0.004
	c0.001-0.001,0.001-0.003,0.003-0.004L48.449,40C48.867,39.61,48.867,38.979,48.449,38.59z"/>
</svg>
