<?xml version="1.0" encoding="utf-8"?>
<!-- Generator: Adobe Illustrator 16.0.0, SVG Export Plug-In . SVG Version: 6.00 Build 0)  -->
<!DOCTYPE svg PUBLIC "-//W3C//DTD SVG 1.1//EN" "http://www.w3.org/Graphics/SVG/1.1/DTD/svg11.dtd">
<svg version="1.1" id="Layer_1" xmlns="http://www.w3.org/2000/svg" xmlns:xlink="http://www.w3.org/1999/xlink" x="0px" y="0px"
	 width="34px" height="36px" viewBox="0 0 34 36" enable-background="new 0 0 34 36" xml:space="preserve">
<g>
	<rect y="34" fill="#0c818b" width="32.027" height="2"/>
	<path fill="#0c818b" d="M32.689,3.535L30.566,1.35C29.721,0.479,28.598,0,27.402,0s-2.319,0.479-3.104,1.292L5.191,17.871
		c-0.148,0.128-0.255,0.299-0.308,0.49l-2.831,10.2c-0.097,0.349-0.003,0.725,0.247,0.981c0.185,0.19,0.433,0.293,0.687,0.293
		c0.089,0,0.179-0.013,0.267-0.038l9.908-2.914c0.132-0.039,0.254-0.106,0.359-0.197l19.169-16.637C33.535,9.179,34,8.022,34,6.792
		S33.535,4.405,32.689,3.535z M12.428,25.018L4.4,27.379l2.27-8.176L21.795,6.076l5.7,5.868L12.428,25.018z M31.377,8.576
		l-2.391,2.074l-5.699-5.868l2.325-2.019c0.957-0.985,2.624-0.985,3.58,0l2.123,2.186c0.479,0.492,0.741,1.146,0.741,1.843
		C32.057,7.488,31.794,8.142,31.377,8.576z"/>
</g>
</svg>
