<?xml version="1.0" encoding="utf-8"?>
<!-- Generator: Adobe Illustrator 16.0.0, SVG Export Plug-In . SVG Version: 6.00 Build 0)  -->
<!DOCTYPE svg PUBLIC "-//W3C//DTD SVG 1.1//EN" "http://www.w3.org/Graphics/SVG/1.1/DTD/svg11.dtd">
<svg version="1.1" id="Layer_1" xmlns="http://www.w3.org/2000/svg" xmlns:xlink="http://www.w3.org/1999/xlink" x="0px" y="0px"
	 width="66px" height="60px" viewBox="0 0 66 60" enable-background="new 0 0 66 60" xml:space="preserve">
<g>
	<path fill="#333333" d="M33,0.026c-16.528,0-29.975,13.446-29.975,29.975S16.472,59.974,33,59.974s29.975-13.444,29.975-29.973
		S49.528,0.026,33,0.026z M33,57.847c-15.355,0-27.847-12.491-27.847-27.846C5.153,14.646,17.645,2.154,33,2.154
		s27.847,12.491,27.847,27.847C60.847,45.355,48.355,57.847,33,57.847z"/>
	<polygon fill="#333333" points="44.311,17.188 33.001,28.497 21.69,17.188 20.187,18.691 31.497,30.001 20.187,41.311 
		21.69,42.814 33.001,31.505 44.311,42.814 45.814,41.311 34.505,30.001 45.814,18.691 	"/>
</g>
</svg>
