<?xml version="1.0" encoding="utf-8"?>
<!-- Generator: Adobe Illustrator 16.0.0, SVG Export Plug-In . SVG Version: 6.00 Build 0)  -->
<!DOCTYPE svg PUBLIC "-//W3C//DTD SVG 1.1//EN" "http://www.w3.org/Graphics/SVG/1.1/DTD/svg11.dtd">
<svg version="1.1" id="Layer_1" xmlns="http://www.w3.org/2000/svg" xmlns:xlink="http://www.w3.org/1999/xlink" x="0px" y="0px"
	 width="32px" height="28px" viewBox="0 0 32 28" enable-background="new 0 0 32 28" xml:space="preserve">
<path fill="#F8E100" d="M15.994,16.363c0.177,0.104,0.408,0.154,0.693,0.154h3.842c0.277,0,0.505-0.064,0.684-0.188
	c0.186-0.125,0.273-0.297,0.273-0.525c-0.002-0.053-0.014-0.107-0.025-0.154c-0.042-0.174-0.145-0.314-0.314-0.409
	c-0.164-0.101-0.373-0.148-0.621-0.148h-3.078l0.002-5.28c0.004-0.072,0-0.144-0.018-0.211c-0.045-0.19-0.146-0.347-0.307-0.461
	c-0.161-0.112-0.355-0.169-0.59-0.169c-0.284,0-0.51,0.077-0.673,0.233c-0.171,0.153-0.252,0.359-0.252,0.609l-0.007,5.713
	c0.006,0.125,0.021,0.236,0.044,0.332C15.703,16.092,15.814,16.261,15.994,16.363z"/>
<path fill="#F8E100" d="M21.691,16.021c0.043,0.194,0.148,0.349,0.309,0.457c0.164,0.11,0.361,0.172,0.59,0.172
	c0.283,0,0.51-0.08,0.68-0.233c0.166-0.153,0.246-0.356,0.25-0.61l-0.009-1.678l1.011-0.929l2.125,3.005
	c0.117,0.176,0.239,0.287,0.359,0.355c0.116,0.059,0.275,0.09,0.462,0.09c0.261,0,0.485-0.068,0.667-0.191
	c0.184-0.127,0.277-0.331,0.277-0.622c0-0.01,0-0.024,0.001-0.054c-0.009-0.022-0.015-0.043-0.015-0.049
	c-0.023-0.104-0.113-0.256-0.264-0.473l-0.066-0.095l-2.241-3.119l1.894-1.821c0.094-0.092,0.161-0.179,0.219-0.271
	c0.055-0.088,0.086-0.189,0.088-0.305c-0.008-0.02-0.008-0.046-0.008-0.07c-0.008-0.035-0.01-0.057-0.014-0.064
	c-0.037-0.165-0.138-0.297-0.303-0.394c-0.168-0.101-0.35-0.153-0.553-0.153c-0.152,0-0.278,0.031-0.387,0.09
	c-0.107,0.067-0.222,0.156-0.351,0.279l-2.894,2.928l-0.004-2.455c0.002-0.072-0.006-0.144-0.019-0.211
	c-0.044-0.19-0.149-0.347-0.313-0.461c-0.156-0.112-0.354-0.169-0.586-0.169c-0.281,0-0.508,0.077-0.675,0.233
	c-0.165,0.153-0.252,0.359-0.252,0.609l0.004,5.994C21.671,15.879,21.675,15.955,21.691,16.021z"/>
<path fill="#F8E100" d="M8.082,15.609c-0.035,0.119-0.055,0.219-0.051,0.302c0,0.062,0.007,0.12,0.017,0.173
	C8.09,16.262,8.185,16.402,8.33,16.5c0.148,0.102,0.33,0.15,0.543,0.15c0.437,0,0.711-0.157,0.83-0.463l0.477-1.232h2.966
	l0.476,1.232c0.125,0.306,0.4,0.463,0.825,0.463c0.241,0,0.446-0.068,0.615-0.215c0.172-0.145,0.254-0.32,0.259-0.525
	c-0.006-0.049-0.015-0.115-0.034-0.196c-0.03-0.123-0.078-0.276-0.149-0.452l-2.223-5.669c-0.092-0.244-0.218-0.407-0.381-0.492
	c-0.162-0.085-0.363-0.129-0.603-0.129H11.49c-0.232,0-0.418,0.042-0.566,0.12c-0.149,0.079-0.258,0.211-0.337,0.397l-2.378,5.772
	C8.161,15.377,8.119,15.494,8.082,15.609z M11.68,10.804h0.022l1.05,2.976h-2.155L11.68,10.804z"/>
<path fill="#F8E100" d="M3.252,10.384c0.171,0.092,0.378,0.143,0.619,0.143h1.743l-0.004,5.28c-0.002,0.073,0,0.148,0.016,0.215
	c0.044,0.194,0.146,0.349,0.31,0.457c0.158,0.11,0.355,0.172,0.589,0.172c0.28,0,0.51-0.08,0.673-0.233
	c0.171-0.153,0.253-0.356,0.253-0.61l0.006-5.281h1.74c0.277,0,0.504-0.064,0.681-0.186c0.178-0.126,0.268-0.296,0.268-0.527
	c0.002-0.051-0.004-0.103-0.015-0.152c-0.042-0.179-0.149-0.317-0.322-0.414C9.638,9.153,9.435,9.102,9.195,9.102H3.867
	c-0.276,0-0.501,0.067-0.683,0.19c-0.182,0.12-0.274,0.3-0.274,0.521c0.006,0.056,0.014,0.11,0.025,0.157
	C2.976,10.15,3.079,10.29,3.252,10.384z"/>
<path fill="#3B1E1F" d="M15.998,1.171C7.16,1.171,0,6.146,0,12.288c0,3.951,2.967,7.414,7.423,9.388L5.915,26.63
	c-0.056,0.154-0.012,0.317,0.115,0.429c0.088,0.07,0.203,0.112,0.324,0.112c0.1,0,0.192-0.036,0.282-0.096l6.483-3.853
	c0.941,0.118,1.899,0.186,2.88,0.186c8.833,0,16.002-4.973,16.002-11.12C32,6.146,24.831,1.171,15.998,1.171z M9.878,10.34
	c-0.177,0.122-0.404,0.186-0.681,0.186h-1.74l-0.006,5.281c0,0.254-0.082,0.457-0.253,0.61C7.035,16.57,6.805,16.65,6.525,16.65
	c-0.234,0-0.431-0.062-0.589-0.172c-0.164-0.108-0.266-0.263-0.31-0.457C5.61,15.955,5.608,15.88,5.61,15.807l0.004-5.28H3.871
	c-0.241,0-0.448-0.051-0.619-0.143C3.079,10.29,2.976,10.15,2.935,9.97C2.924,9.923,2.916,9.869,2.91,9.813
	c0-0.221,0.092-0.401,0.274-0.521c0.182-0.123,0.407-0.19,0.683-0.19h5.328c0.24,0,0.443,0.051,0.614,0.145
	c0.173,0.097,0.28,0.235,0.322,0.414c0.011,0.049,0.017,0.101,0.015,0.152C10.146,10.044,10.056,10.214,9.878,10.34z M10.587,9.489
	c0.079-0.186,0.188-0.318,0.337-0.397c0.148-0.078,0.334-0.12,0.566-0.12h0.441c0.24,0,0.441,0.044,0.603,0.129
	c0.163,0.085,0.289,0.248,0.381,0.492l2.223,5.669c0.071,0.176,0.119,0.329,0.149,0.452c0.019,0.081,0.028,0.147,0.034,0.196
	c-0.005,0.205-0.087,0.381-0.259,0.525c-0.169,0.146-0.374,0.215-0.615,0.215c-0.425,0-0.7-0.157-0.825-0.463l-0.476-1.232H10.18
	l-0.477,1.232c-0.119,0.306-0.393,0.463-0.83,0.463c-0.213,0-0.395-0.049-0.543-0.15c-0.145-0.098-0.24-0.238-0.282-0.416
	c-0.01-0.053-0.017-0.111-0.017-0.173c-0.004-0.083,0.016-0.183,0.051-0.302c0.037-0.115,0.079-0.232,0.127-0.348L10.587,9.489z
	 M20.525,15.093c0.248,0,0.457,0.048,0.621,0.148c0.17,0.095,0.272,0.235,0.314,0.409c0.012,0.047,0.023,0.102,0.025,0.154
	c0,0.229-0.088,0.4-0.273,0.525c-0.179,0.123-0.406,0.188-0.684,0.188h-3.842c-0.286,0-0.517-0.05-0.693-0.154
	c-0.18-0.103-0.291-0.271-0.347-0.504c-0.023-0.096-0.038-0.207-0.044-0.332l0.007-5.713c0-0.25,0.081-0.456,0.252-0.609
	c0.163-0.156,0.389-0.233,0.673-0.233c0.234,0,0.429,0.057,0.59,0.169c0.16,0.114,0.262,0.271,0.307,0.461
	c0.018,0.067,0.021,0.139,0.018,0.211l-0.002,5.28H20.525z M28.412,15.837c0,0.291-0.094,0.495-0.277,0.622
	c-0.182,0.123-0.406,0.191-0.667,0.191c-0.187,0-0.346-0.031-0.462-0.09c-0.12-0.068-0.242-0.18-0.359-0.355L24.521,13.2
	l-1.011,0.929l0.009,1.678c-0.004,0.254-0.084,0.457-0.25,0.61c-0.17,0.153-0.396,0.233-0.68,0.233c-0.229,0-0.426-0.062-0.59-0.172
	c-0.16-0.108-0.266-0.263-0.309-0.457c-0.017-0.066-0.021-0.143-0.017-0.215l-0.004-5.994c0-0.25,0.087-0.456,0.252-0.609
	c0.167-0.156,0.394-0.233,0.675-0.233c0.232,0,0.43,0.057,0.586,0.169c0.164,0.114,0.27,0.271,0.313,0.461
	c0.013,0.067,0.021,0.139,0.019,0.211l0.004,2.455l2.894-2.928c0.129-0.123,0.243-0.212,0.351-0.279
	c0.108-0.059,0.234-0.09,0.387-0.09c0.203,0,0.385,0.052,0.553,0.153c0.165,0.097,0.266,0.229,0.303,0.394
	c0.004,0.007,0.006,0.029,0.014,0.064c0,0.024,0,0.05,0.008,0.07c-0.002,0.116-0.033,0.217-0.088,0.305
	c-0.058,0.092-0.125,0.179-0.219,0.271l-1.894,1.821l2.241,3.119l0.066,0.095c0.15,0.217,0.24,0.369,0.264,0.473
	c0,0.006,0.006,0.026,0.015,0.049C28.412,15.813,28.412,15.827,28.412,15.837z"/>
<polygon fill="#3B1E1F" points="11.702,10.804 11.68,10.804 10.597,13.78 12.752,13.78 "/>
</svg>
