<?xml version="1.0" encoding="utf-8"?>
<!-- Generator: Adobe Illustrator 16.0.0, SVG Export Plug-In . SVG Version: 6.00 Build 0)  -->
<!DOCTYPE svg PUBLIC "-//W3C//DTD SVG 1.1//EN" "http://www.w3.org/Graphics/SVG/1.1/DTD/svg11.dtd">
<svg version="1.1" id="Layer_1" xmlns="http://www.w3.org/2000/svg" xmlns:xlink="http://www.w3.org/1999/xlink" x="0px" y="0px"
	 width="66px" height="60px" viewBox="0 0 66 60" enable-background="new 0 0 66 60" xml:space="preserve">
<g>
	<path fill="#333333" d="M32.995,0C15.057,0,0.524,11.478,0.524,25.646c0,9.114,6.023,17.103,15.066,21.656L12.527,58.73
		c-0.114,0.353-0.024,0.728,0.234,0.98c0.178,0.172,0.41,0.267,0.657,0.267c0.204,0,0.391-0.085,0.573-0.221l13.157-8.886
		c1.909,0.273,3.855,0.427,5.846,0.427c17.931,0,32.48-11.47,32.48-25.652C65.476,11.478,50.926,0,32.995,0z M32.995,49.298
		c-1.808,0-3.679-0.137-5.562-0.406l-0.764-0.109l-0.639,0.432l-10.844,7.323l2.336-8.718l0.421-1.572l-1.454-0.731
		C7.745,41.111,2.524,33.684,2.524,25.646C2.524,12.607,16.193,2,32.995,2c16.807,0,30.48,10.607,30.48,23.646
		C63.476,38.688,49.802,49.298,32.995,49.298z"/>
	<polygon fill="#333333" points="23.3,19.256 14.705,19.256 14.705,20.504 18.258,20.504 18.258,30.989 19.747,30.989 
		19.747,20.504 23.3,20.504 	"/>
	<path fill="#333333" d="M27.106,19.256L23.12,30.989h1.505l1.136-3.586h4.29l1.121,3.586h1.568l-3.986-11.733H27.106z
		 M29.683,26.219h-3.554l0.576-1.792c0.417-1.329,0.8-2.593,1.168-3.97h0.064c0.384,1.36,0.752,2.641,1.184,3.97L29.683,26.219z"/>
	<polygon fill="#333333" points="35.873,19.256 34.385,19.256 34.385,30.989 40.996,30.989 40.996,29.724 35.873,29.724 	"/>
	<polygon fill="#333333" points="51.156,19.256 49.491,19.256 44.594,25.146 44.545,25.146 44.545,19.256 43.057,19.256 
		43.057,30.989 44.545,30.989 44.545,27.275 46.563,24.875 50.067,30.989 51.732,30.989 47.49,23.722 	"/>
</g>
</svg>
