<?xml version="1.0" encoding="utf-8"?>
<!-- Generator: Adobe Illustrator 16.0.0, SVG Export Plug-In . SVG Version: 6.00 Build 0)  -->
<!DOCTYPE svg PUBLIC "-//W3C//DTD SVG 1.1//EN" "http://www.w3.org/Graphics/SVG/1.1/DTD/svg11.dtd">
<svg version="1.1" id="Layer_1" xmlns="http://www.w3.org/2000/svg" xmlns:xlink="http://www.w3.org/1999/xlink" x="0px" y="0px"
	 width="32px" height="28px" viewBox="0 0 32 28" enable-background="new 0 0 32 28" xml:space="preserve">
<g>
	<path fill="#787878" d="M15.998,1.171C7.16,1.171,0,6.146,0,12.288c0,3.951,2.967,7.414,7.423,9.388L5.915,26.63
		c-0.056,0.154-0.012,0.317,0.115,0.428c0.088,0.071,0.203,0.113,0.324,0.113c0.1,0,0.192-0.036,0.282-0.096l6.483-3.852
		c0.941,0.118,1.899,0.185,2.88,0.185c8.833,0,16.002-4.973,16.002-11.12C32,6.146,24.831,1.171,15.998,1.171z M7.451,15.807
		c0,0.254-0.082,0.457-0.253,0.61C7.035,16.57,6.805,16.65,6.525,16.65c-0.234,0-0.431-0.061-0.589-0.171
		c-0.164-0.109-0.266-0.263-0.31-0.457C5.61,15.955,5.608,15.88,5.61,15.807l0.004-5.28H3.871c-0.241,0-0.448-0.051-0.619-0.143
		C3.079,10.29,2.976,10.15,2.935,9.97C2.924,9.923,2.916,9.869,2.91,9.813c0-0.221,0.092-0.401,0.274-0.521
		c0.182-0.123,0.407-0.19,0.683-0.19h5.328c0.24,0,0.443,0.051,0.614,0.145c0.173,0.097,0.28,0.235,0.322,0.414
		c0.011,0.049,0.017,0.101,0.015,0.152c0,0.231-0.09,0.401-0.268,0.527c-0.177,0.122-0.404,0.186-0.681,0.186H7.457L7.451,15.807z
		 M15.062,16.435c-0.169,0.147-0.374,0.216-0.615,0.216c-0.425,0-0.7-0.158-0.825-0.463l-0.476-1.233H10.18l-0.477,1.233
		c-0.119,0.305-0.393,0.463-0.83,0.463c-0.213,0-0.395-0.049-0.543-0.151c-0.145-0.097-0.24-0.238-0.282-0.416
		c-0.01-0.053-0.017-0.111-0.017-0.173c-0.004-0.083,0.016-0.183,0.051-0.301c0.037-0.116,0.079-0.233,0.127-0.348l2.378-5.773
		c0.079-0.186,0.188-0.318,0.337-0.397c0.148-0.078,0.334-0.12,0.566-0.12h0.441c0.24,0,0.441,0.044,0.603,0.129
		c0.163,0.085,0.289,0.248,0.381,0.492l2.223,5.669c0.071,0.175,0.119,0.329,0.149,0.452c0.019,0.081,0.028,0.147,0.034,0.196
		C15.316,16.115,15.234,16.291,15.062,16.435z M21.213,16.33c-0.179,0.123-0.407,0.187-0.684,0.187h-3.842
		c-0.285,0-0.516-0.049-0.693-0.154c-0.18-0.102-0.291-0.271-0.347-0.504c-0.023-0.096-0.038-0.207-0.044-0.331l0.007-5.714
		c0-0.25,0.081-0.456,0.252-0.609c0.163-0.156,0.389-0.233,0.673-0.233c0.234,0,0.429,0.057,0.59,0.169
		c0.16,0.114,0.262,0.271,0.306,0.461c0.018,0.067,0.022,0.139,0.018,0.211l-0.002,5.28h3.078c0.249,0,0.457,0.047,0.621,0.148
		c0.171,0.095,0.273,0.235,0.315,0.409c0.012,0.047,0.023,0.102,0.025,0.155C21.486,16.033,21.399,16.205,21.213,16.33z
		 M28.412,15.837c0,0.291-0.093,0.495-0.277,0.622c-0.182,0.123-0.407,0.191-0.667,0.191c-0.187,0-0.346-0.031-0.462-0.09
		c-0.12-0.068-0.243-0.179-0.359-0.355L24.521,13.2l-1.01,0.929l0.009,1.678c-0.004,0.254-0.085,0.457-0.251,0.61
		c-0.17,0.153-0.396,0.233-0.679,0.233c-0.229,0-0.426-0.061-0.59-0.171c-0.16-0.109-0.266-0.263-0.309-0.457
		c-0.016-0.067-0.02-0.143-0.016-0.216l-0.004-5.993c0-0.25,0.087-0.456,0.252-0.609c0.167-0.156,0.393-0.233,0.674-0.233
		c0.233,0,0.43,0.057,0.587,0.169c0.164,0.114,0.269,0.271,0.313,0.461c0.013,0.067,0.021,0.139,0.018,0.211l0.004,2.455
		l2.894-2.928c0.129-0.123,0.243-0.212,0.35-0.279c0.109-0.059,0.235-0.09,0.388-0.09c0.202,0,0.384,0.052,0.552,0.153
		c0.165,0.097,0.266,0.229,0.303,0.394c0.004,0.007,0.006,0.029,0.014,0.064c0,0.024,0,0.05,0.007,0.07
		c-0.002,0.116-0.033,0.217-0.088,0.305c-0.057,0.092-0.125,0.179-0.219,0.271l-1.893,1.821l2.242,3.119l0.066,0.095
		c0.15,0.216,0.24,0.369,0.264,0.473c0,0.005,0.005,0.026,0.014,0.048C28.412,15.813,28.412,15.827,28.412,15.837z"/>
	<polygon fill="#787878" points="11.68,10.804 10.597,13.78 12.752,13.78 11.702,10.804 	"/>
</g>
</svg>
