<?xml version="1.0" encoding="utf-8"?>
<!-- Generator: Adobe Illustrator 16.0.0, SVG Export Plug-In . SVG Version: 6.00 Build 0)  -->
<!DOCTYPE svg PUBLIC "-//W3C//DTD SVG 1.1//EN" "http://www.w3.org/Graphics/SVG/1.1/DTD/svg11.dtd">
<svg version="1.1" id="Layer_1" xmlns="http://www.w3.org/2000/svg" xmlns:xlink="http://www.w3.org/1999/xlink" x="0px" y="0px"
	 width="50px" height="32px" viewBox="0 0 50 32" enable-background="new 0 0 50 32" xml:space="preserve">
<g>
	<path fill="#FFFFFF" d="M4.601,10.874h5.841v0.98H5.763v3.376h3.937v0.98H5.763v3.936h4.833v0.98H4.601V10.874z"/>
	<path fill="#FFFFFF" d="M11.376,10.874h1.219l1.723,5.659c0.364,1.219,0.603,2.186,1.009,3.389h0.056
		c0.393-1.203,0.645-2.17,1.022-3.389l1.695-5.659h1.177l-3.278,10.253h-1.331L11.376,10.874z"/>
	<path fill="#FFFFFF" d="M20.714,10.874h5.841v0.98h-4.678v3.376h3.936v0.98h-3.936v3.936h4.832v0.98h-5.995V10.874z"/>
	<path fill="#FFFFFF" d="M28.89,10.874h1.19l3.881,6.64l1.106,2.102h0.069c-0.069-1.023-0.153-2.145-0.153-3.195v-5.547h1.106
		v10.253h-1.205l-3.852-6.64l-1.121-2.101h-0.07c0.057,1.022,0.141,2.059,0.141,3.124v5.617H28.89V10.874z"/>
	<path fill="#FFFFFF" d="M41.085,11.854h-3.124v-0.98h7.438v0.98h-3.138v9.273h-1.177V11.854z"/>
</g>
</svg>
