<?xml version="1.0" encoding="utf-8"?>
<!-- Generator: Adobe Illustrator 16.0.0, SVG Export Plug-In . SVG Version: 6.00 Build 0)  -->
<!DOCTYPE svg PUBLIC "-//W3C//DTD SVG 1.1//EN" "http://www.w3.org/Graphics/SVG/1.1/DTD/svg11.dtd">
<svg version="1.1" id="Layer_1" xmlns="http://www.w3.org/2000/svg" xmlns:xlink="http://www.w3.org/1999/xlink" x="0px" y="0px"
	 width="50px" height="32px" viewBox="0 0 50 32" enable-background="new 0 0 50 32" xml:space="preserve">
<g>
	<path fill="#FFFFFF" d="M15.963,11.854h-3.124v-0.98h7.438v0.98H17.14v9.272h-1.177V11.854z"/>
	<path fill="#FFFFFF" d="M21.169,16c0-3.292,1.905-5.309,4.497-5.309c1.246,0,2.199,0.602,2.787,1.246l-0.645,0.757
		c-0.532-0.589-1.232-0.98-2.129-0.98c-2.003,0-3.319,1.625-3.319,4.258c0,2.647,1.26,4.314,3.277,4.314
		c0.994,0,1.751-0.42,2.423-1.177l0.645,0.729c-0.798,0.938-1.793,1.471-3.123,1.471C23.046,21.309,21.169,19.319,21.169,16z"/>
	<path fill="#FFFFFF" d="M29.625,16c0-3.292,1.905-5.309,4.497-5.309c1.246,0,2.199,0.602,2.787,1.246l-0.645,0.757
		c-0.532-0.589-1.232-0.98-2.129-0.98c-2.003,0-3.32,1.625-3.32,4.258c0,2.647,1.261,4.314,3.278,4.314
		c0.994,0,1.751-0.42,2.423-1.177l0.645,0.729c-0.798,0.938-1.793,1.471-3.123,1.471C31.502,21.309,29.625,19.319,29.625,16z"/>
</g>
</svg>
