<?xml version="1.0" encoding="utf-8"?>
<!-- Generator: Adobe Illustrator 16.0.0, SVG Export Plug-In . SVG Version: 6.00 Build 0)  -->
<!DOCTYPE svg PUBLIC "-//W3C//DTD SVG 1.1//EN" "http://www.w3.org/Graphics/SVG/1.1/DTD/svg11.dtd">
<svg version="1.1" id="Layer_1" xmlns="http://www.w3.org/2000/svg" xmlns:xlink="http://www.w3.org/1999/xlink" x="0px" y="0px"
	 width="32px" height="28px" viewBox="0 0 32 28" enable-background="new 0 0 32 28" xml:space="preserve">
<path fill="#5CAADF" d="M31.875,12.733c-1.121,0.2-2.745-0.008-3.604-0.383c1.787-0.156,2.998-1.007,3.467-2.162
	c-0.646,0.415-2.649,0.867-3.754,0.437c-0.055-0.272-0.114-0.532-0.174-0.765c-0.843-3.243-3.729-5.856-6.748-5.54
	c0.242-0.104,0.489-0.201,0.738-0.288c0.332-0.125,2.283-0.459,1.979-1.18c-0.26-0.635-2.646,0.479-3.094,0.626
	c0.59-0.234,1.573-0.635,1.678-1.349c-0.908,0.13-1.801,0.58-2.489,1.233c0.25-0.28,0.438-0.622,0.479-0.989
	c-2.424,1.622-3.84,4.892-4.983,8.065c-0.899-0.914-1.697-1.633-2.412-2.034C10.953,7.28,8.553,6.103,4.789,4.637
	C4.674,5.942,5.405,7.681,7.511,8.834c-0.455-0.066-1.29,0.079-1.958,0.244c0.273,1.498,1.161,2.731,3.565,3.325
	c-1.098,0.075-1.667,0.339-2.183,0.903c0.501,1.041,1.726,2.264,3.921,2.014c-2.444,1.104-0.998,3.148,0.992,2.845
	C8.459,21.836,3.11,21.564,0.04,18.494c8.015,11.453,25.438,6.773,28.035-4.257C30.023,14.253,31.167,13.53,31.875,12.733z"/>
</svg>
