<?xml version="1.0" encoding="utf-8"?>
<!-- Generator: Adobe Illustrator 16.0.0, SVG Export Plug-In . SVG Version: 6.00 Build 0)  -->
<!DOCTYPE svg PUBLIC "-//W3C//DTD SVG 1.1//EN" "http://www.w3.org/Graphics/SVG/1.1/DTD/svg11.dtd">
<svg version="1.1" id="Layer_1" xmlns="http://www.w3.org/2000/svg" xmlns:xlink="http://www.w3.org/1999/xlink" x="0px" y="0px"
	 width="32px" height="28px" viewBox="0 0 32 28" enable-background="new 0 0 32 28" xml:space="preserve">
<path fill-rule="evenodd" clip-rule="evenodd" fill="#797979" d="M31.875,12.733c-1.121,0.2-2.745-0.008-3.604-0.383
	c1.787-0.156,2.998-1.007,3.467-2.162c-0.646,0.415-2.649,0.867-3.754,0.437c-0.054-0.272-0.114-0.532-0.174-0.765
	c-0.842-3.243-3.728-5.856-6.748-5.54c0.243-0.104,0.49-0.201,0.739-0.288c0.332-0.125,2.283-0.459,1.978-1.18
	c-0.26-0.635-2.646,0.479-3.093,0.626c0.59-0.234,1.573-0.635,1.677-1.349c-0.908,0.13-1.8,0.58-2.489,1.233
	c0.25-0.28,0.439-0.622,0.479-0.989c-2.423,1.622-3.839,4.892-4.983,8.065c-0.899-0.914-1.697-1.633-2.412-2.034
	C10.953,7.28,8.553,6.103,4.789,4.637C4.674,5.942,5.405,7.681,7.511,8.834c-0.455-0.066-1.29,0.079-1.958,0.244
	c0.273,1.498,1.161,2.731,3.565,3.325c-1.098,0.075-1.667,0.339-2.183,0.903c0.501,1.041,1.726,2.264,3.921,2.014
	c-2.444,1.104-0.998,3.149,0.992,2.845c-3.389,3.671-8.738,3.4-11.808,0.329c8.015,11.453,25.438,6.773,28.035-4.257
	C30.023,14.253,31.167,13.53,31.875,12.733z"/>
</svg>
