<?xml version="1.0" encoding="utf-8"?>
<!-- Generator: Adobe Illustrator 16.0.0, SVG Export Plug-In . SVG Version: 6.00 Build 0)  -->
<!DOCTYPE svg PUBLIC "-//W3C//DTD SVG 1.1//EN" "http://www.w3.org/Graphics/SVG/1.1/DTD/svg11.dtd">
<svg version="1.1" id="Layer_1" xmlns="http://www.w3.org/2000/svg" xmlns:xlink="http://www.w3.org/1999/xlink" x="0px" y="0px"
	 width="38px" height="38px" viewBox="0 0 38 38" enable-background="new 0 0 38 38" xml:space="preserve">
<g>
	<path fill="#FFFFFF" d="M19,1C9.075,1,1,9.075,1,19s8.075,18,18,18c9.926,0,18-8.075,18-18S28.926,1,19,1z M19,35
		c-8.822,0-16-7.178-16-16S10.178,3,19,3s16,7.178,16,16S27.822,35,19,35z"/>
	<path fill="#FFFFFF" d="M17,22.586l-4.293-4.293l-1.414,1.414l5,5C16.488,24.902,16.744,25,17,25s0.512-0.098,0.707-0.293l10-10
		l-1.414-1.414L17,22.586z"/>
</g>
</svg>
