<?xml version="1.0" encoding="utf-8"?>
<!-- Generator: Adobe Illustrator 16.0.0, SVG Export Plug-In . SVG Version: 6.00 Build 0)  -->
<!DOCTYPE svg PUBLIC "-//W3C//DTD SVG 1.1//EN" "http://www.w3.org/Graphics/SVG/1.1/DTD/svg11.dtd">
<svg version="1.1" id="Layer_1" xmlns="http://www.w3.org/2000/svg" xmlns:xlink="http://www.w3.org/1999/xlink" x="0px" y="0px"
	 width="38px" height="38px" viewBox="0 0 38 38" enable-background="new 0 0 38 38" xml:space="preserve">
<g>
	<path fill="#FFFFFF" d="M33,2.068H5c-2.15,0-3.9,1.75-3.9,3.9v26.063c0,2.15,1.75,3.9,3.9,3.9h28c2.15,0,3.9-1.75,3.9-3.9V5.969
		C36.9,3.818,35.15,2.068,33,2.068z M5,3.869h28c1.158,0,2.1,0.941,2.1,2.1v5.662h-32.2V5.969C2.899,4.811,3.842,3.869,5,3.869z
		 M33,34.131H5c-1.158,0-2.101-0.941-2.101-2.1v-18.6h32.2v18.6C35.1,33.189,34.158,34.131,33,34.131z"/>
	<rect x="8.25" y="22.781" fill="#FFFFFF" width="4.75" height="4.75"/>
</g>
</svg>
