<?xml version="1.0" encoding="utf-8"?>
<!-- Generator: Adobe Illustrator 16.0.0, SVG Export Plug-In . SVG Version: 6.00 Build 0)  -->
<!DOCTYPE svg PUBLIC "-//W3C//DTD SVG 1.1//EN" "http://www.w3.org/Graphics/SVG/1.1/DTD/svg11.dtd">
<svg version="1.1" id="Layer_1" xmlns="http://www.w3.org/2000/svg" xmlns:xlink="http://www.w3.org/1999/xlink" x="0px" y="0px"
	 width="38px" height="38px" viewBox="0 0 38 38" enable-background="new 0 0 38 38" xml:space="preserve">
<g>
	<path fill="#FFFFFF" d="M37.096,10.27c-0.19-0.212-0.461-0.333-0.745-0.333h-6.032l-3.768-8.313
		c-0.191-0.421-0.638-0.629-1.074-0.556c-0.053-0.009-0.1-0.031-0.155-0.031H12.36c-0.393,0-0.749,0.229-0.911,0.587L7.682,9.937
		H1.649c-0.284,0-0.555,0.121-0.745,0.333c-0.189,0.211-0.28,0.494-0.249,0.776l2.744,25.026c0.056,0.508,0.484,0.891,0.994,0.891
		h29.213c0.51,0,0.938-0.383,0.994-0.891l2.744-25.026C37.376,10.764,37.285,10.48,37.096,10.27z M13.005,3.037h11.989l3.128,6.899
		H9.878L13.005,3.037z M32.71,34.963H5.29L2.765,11.937h32.471L32.71,34.963z"/>
	<path fill="#FFFFFF" d="M11.598,28.329c0.553,0,1-0.448,1-1v-7.758c0-0.552-0.447-1-1-1s-1,0.448-1,1v7.758
		C10.598,27.881,11.045,28.329,11.598,28.329z"/>
	<path fill="#FFFFFF" d="M16.504,28.329c0.553,0,1-0.448,1-1v-7.758c0-0.552-0.447-1-1-1s-1,0.448-1,1v7.758
		C15.504,27.881,15.951,28.329,16.504,28.329z"/>
	<path fill="#FFFFFF" d="M21.488,28.329c0.553,0,1-0.448,1-1v-7.758c0-0.552-0.447-1-1-1s-1,0.448-1,1v7.758
		C20.488,27.881,20.936,28.329,21.488,28.329z"/>
	<path fill="#FFFFFF" d="M26.402,28.329c0.553,0,1-0.448,1-1v-7.758c0-0.552-0.447-1-1-1s-1,0.448-1,1v7.758
		C25.402,27.881,25.85,28.329,26.402,28.329z"/>
</g>
</svg>
