<?xml version="1.0" encoding="utf-8"?>
<!-- Generator: Adobe Illustrator 16.0.0, SVG Export Plug-In . SVG Version: 6.00 Build 0)  -->
<!DOCTYPE svg PUBLIC "-//W3C//DTD SVG 1.1//EN" "http://www.w3.org/Graphics/SVG/1.1/DTD/svg11.dtd">
<svg version="1.1" id="Layer_1" xmlns="http://www.w3.org/2000/svg" xmlns:xlink="http://www.w3.org/1999/xlink" x="0px" y="0px"
	 width="38px" height="38px" viewBox="0 0 38 38" enable-background="new 0 0 38 38" xml:space="preserve">
<g>
	<path fill="#989898" d="M14.407,28.084c0.357,0,0.646-0.289,0.646-0.646V21.76c0-0.356-0.289-0.646-0.646-0.646
		s-0.646,0.289-0.646,0.646v5.679C13.761,27.795,14.05,28.084,14.407,28.084z"/>
	<path fill="#989898" d="M19.042,28.084c0.357,0,0.646-0.289,0.646-0.646V21.76c0-0.356-0.289-0.646-0.646-0.646
		c-0.357,0-0.646,0.289-0.646,0.646v5.679C18.396,27.795,18.685,28.084,19.042,28.084z"/>
	<path fill="#989898" d="M23.594,28.084c0.356,0,0.646-0.289,0.646-0.646V21.76c0-0.356-0.289-0.646-0.646-0.646
		c-0.357,0-0.646,0.289-0.646,0.646v5.679C22.947,27.795,23.236,28.084,23.594,28.084z"/>
	<path fill="#989898" d="M37.85,10.511c-0.122-0.146-0.304-0.231-0.495-0.231h-7.547l-1.594-5.42
		c-0.101-0.342-0.457-0.538-0.803-0.438c-0.005,0.002-0.01,0.006-0.016,0.008c-0.056-0.016-0.111-0.034-0.172-0.034H10.406
		c-0.287,0-0.539,0.188-0.62,0.464l-1.595,5.42H0.646c-0.192,0-0.374,0.085-0.496,0.231c-0.123,0.147-0.174,0.342-0.14,0.53
		l1.163,6.393c0.055,0.308,0.323,0.53,0.635,0.53H3.5l2.235,15.089c0.047,0.316,0.319,0.552,0.639,0.552h25.252
		c0.32,0,0.593-0.235,0.64-0.552L34.5,17.964h1.691c0.313,0,0.58-0.223,0.635-0.53l1.163-6.393
		C38.024,10.853,37.973,10.658,37.85,10.511z M10.89,5.688H27.11l1.351,4.592H9.539L10.89,5.688z M31.068,32.312H6.931L4.807,17.964
		h28.387L31.068,32.312z M35.651,16.672h-0.96h-1.307H4.615H3.309h-0.96L1.42,11.571h1.133h5.258h1.347h19.684h1.347h5.259h1.133
		L35.651,16.672z"/>
</g>
</svg>
