<?xml version="1.0" encoding="utf-8"?>
<!-- Generator: Adobe Illustrator 16.0.0, SVG Export Plug-In . SVG Version: 6.00 Build 0)  -->
<!DOCTYPE svg PUBLIC "-//W3C//DTD SVG 1.1//EN" "http://www.w3.org/Graphics/SVG/1.1/DTD/svg11.dtd">
<svg version="1.1" id="Layer_1" xmlns="http://www.w3.org/2000/svg" xmlns:xlink="http://www.w3.org/1999/xlink" x="0px" y="0px"
	 width="40px" height="28px" viewBox="0 0 40 28" enable-background="new 0 0 40 28" xml:space="preserve">
<g>
	<g>
		<path fill="#FFFFFF" d="M40,14c0,7.73-6.216,14-13.881,14H13.882C6.216,28,0,21.73,0,14l0,0C0,6.269,6.216,0,13.882,0h12.237
			C33.784,0,40,6.269,40,14L40,14z"/>
		<path fill="#888888" d="M26.119,1.994c6.563,0,11.904,5.386,11.904,12.006c0,6.621-5.341,12.006-11.904,12.006H13.882
			C7.317,26.006,1.977,20.621,1.977,14c0-6.621,5.34-12.006,11.905-12.006H26.119 M26.119,0H13.882C6.216,0,0,6.269,0,14
			c0,7.73,6.216,14,13.882,14h12.237C33.784,28,40,21.73,40,14C40,6.269,33.784,0,26.119,0L26.119,0z"/>
	</g>
	<g>
		<path fill="#888888" d="M14.688,7.848h2.595l1.993,5.52c0.252,0.734,0.474,1.516,0.711,2.281h0.079
			c0.253-0.765,0.459-1.547,0.712-2.281l1.946-5.52h2.594v11.807h-2.135v-4.93c0-1.117,0.174-2.76,0.284-3.877h-0.063l-0.948,2.776
			l-1.805,4.962h-1.344l-1.82-4.962l-0.933-2.776h-0.063c0.111,1.117,0.301,2.76,0.301,3.877v4.93h-2.104V7.848z"/>
	</g>
</g>
</svg>
