<?xml version="1.0" encoding="utf-8"?>
<!-- Generator: Adobe Illustrator 16.0.0, SVG Export Plug-In . SVG Version: 6.00 Build 0)  -->
<!DOCTYPE svg PUBLIC "-//W3C//DTD SVG 1.1//EN" "http://www.w3.org/Graphics/SVG/1.1/DTD/svg11.dtd">
<svg version="1.1" id="Layer_1" xmlns="http://www.w3.org/2000/svg" xmlns:xlink="http://www.w3.org/1999/xlink" x="0px" y="0px"
	 width="50px" height="28px" viewBox="0 0 50 28" enable-background="new 0 0 50 28" xml:space="preserve">
<g>
	<g>
		<path fill="#FFFFFF" d="M50,14c0,7.731-6.205,14-13.858,14H13.859C6.206,28,0,21.73,0,14l0,0C0,6.268,6.206,0,13.859,0h22.282
			C43.795,0,50,6.268,50,14L50,14z"/>
		<path fill="#888888" d="M36.142,1.994c6.553,0,11.885,5.386,11.885,12.006c0,6.62-5.332,12.006-11.885,12.006H13.859
			C7.306,26.006,1.974,20.619,1.974,14c0-6.62,5.332-12.006,11.886-12.006H36.142 M36.142,0H13.859C6.206,0,0,6.268,0,14
			c0,7.731,6.206,14,13.859,14h22.282C43.795,28,50,21.73,50,14C50,6.268,43.795,0,36.142,0L36.142,0z"/>
	</g>
	<path fill="#888888" d="M36.647,13.688l-0.217,0.164c-0.972,0.732-2.066,1.799-2.923,2.836V7.52h-1.717v9.168
		c-0.855-1.037-1.949-2.103-2.921-2.836l-0.217-0.164l-0.908,1.5l0.175,0.137c1.619,1.264,3.352,3.195,4.522,5.043l0.208,0.326
		l0.208-0.326c1.171-1.848,2.903-3.779,4.522-5.043l0.174-0.137L36.647,13.688z"/>
	<g>
		<path fill="#888888" d="M13.501,7.848h2.591l1.99,5.52c0.253,0.734,0.474,1.516,0.71,2.281h0.079
			c0.253-0.765,0.458-1.547,0.711-2.281l1.942-5.52h2.59v11.807h-2.131v-4.93c0-1.117,0.173-2.76,0.284-3.877h-0.063l-0.947,2.776
			l-1.801,4.962h-1.343l-1.816-4.962l-0.932-2.776h-0.064c0.112,1.117,0.301,2.76,0.301,3.877v4.93h-2.101V7.848z"/>
	</g>
</g>
</svg>
