<?xml version="1.0" encoding="utf-8"?>
<!-- Generator: Adobe Illustrator 16.0.0, SVG Export Plug-In . SVG Version: 6.00 Build 0)  -->
<!DOCTYPE svg PUBLIC "-//W3C//DTD SVG 1.1//EN" "http://www.w3.org/Graphics/SVG/1.1/DTD/svg11.dtd">
<svg version="1.1" id="Layer_1" xmlns="http://www.w3.org/2000/svg" xmlns:xlink="http://www.w3.org/1999/xlink" x="0px" y="0px"
	 width="46px" height="50px" viewBox="0 0 46 50" enable-background="new 0 0 46 50" xml:space="preserve">
<g>
	<polygon fill="#FFFFFF" points="34.8,40.84 31.169,37.26 30.046,38.367 34.8,43.056 40.511,37.424 39.388,36.316 	"/>
	<path fill="#FFFFFF" d="M35.72,28.856c-1.936-0.819-4.256-1.462-7.033-1.845c3.09-1.71,5.768-5.34,5.768-12.796
		c0-4.825-1.149-8.504-3.414-10.936C29.039,1.135,26.154,0,22.694,0c-4.393,0-11.762,1.847-11.762,14.219
		c0,7.452,2.675,11.082,5.763,12.792C1.323,29.104,0,39.238,0,42.59V50l35.278-0.018c2.313,0,4.451-0.733,6.205-1.967
		c0.698-0.49,1.334-1.061,1.893-1.698c0.875-0.995,1.561-2.153,2.013-3.421C45.777,41.803,46,40.632,46,39.408
		C46,33.725,41.427,29.088,35.72,28.856z M12.944,14.219c0-8.004,3.373-12.235,9.752-12.235c6.375,0,9.746,4.23,9.746,12.231
		c0,8.004-3.371,12.234-9.748,12.236C16.316,26.451,12.944,22.221,12.944,14.219z M2.012,48.016V42.59
		c0-3.281,1.491-13.981,20.683-13.981c3.459,0,6.334,0.353,8.736,0.942c-4.014,1.529-6.874,5.365-6.874,9.857
		c0,3.55,1.788,6.689,4.517,8.607H2.012z M35.278,48.416c-5.036,0-9.134-4.04-9.134-9.008c0-4.967,4.098-9.008,9.134-9.008
		c2.814,0,5.333,1.264,7.011,3.244c0.023,0.029,0.05,0.059,0.073,0.088c0.045,0.057,0.086,0.116,0.131,0.173
		c0.174,0.23,0.34,0.462,0.494,0.694c0.897,1.394,1.425,3.039,1.425,4.809C44.412,44.376,40.315,48.416,35.278,48.416z"/>
</g>
</svg>
