<?xml version="1.0" encoding="utf-8"?>
<!-- Generator: Adobe Illustrator 16.0.0, SVG Export Plug-In . SVG Version: 6.00 Build 0)  -->
<!DOCTYPE svg PUBLIC "-//W3C//DTD SVG 1.1//EN" "http://www.w3.org/Graphics/SVG/1.1/DTD/svg11.dtd">
<svg version="1.1" id="Layer_1" xmlns="http://www.w3.org/2000/svg" xmlns:xlink="http://www.w3.org/1999/xlink" x="0px" y="0px"
	 width="52px" height="56px" viewBox="0 0 52 56" enable-background="new 0 0 52 56" xml:space="preserve">
<g>
	<path fill="#333333" d="M12.108,26.928c-1.843,0-3.342,1.5-3.342,3.343c0,1.842,1.499,3.342,3.342,3.342s3.343-1.5,3.343-3.342
		C15.452,28.428,13.952,26.928,12.108,26.928z M12.108,32.217c-1.073,0-1.945-0.873-1.945-1.945c0-1.074,0.873-1.947,1.945-1.947
		c1.073,0,1.946,0.873,1.946,1.947C14.054,31.344,13.182,32.217,12.108,32.217z"/>
	<path fill="#333333" d="M12.108,38.021c-1.843,0-3.342,1.5-3.342,3.342c0,1.844,1.499,3.344,3.342,3.344s3.343-1.5,3.343-3.344
		C15.452,39.521,13.952,38.021,12.108,38.021z M12.108,43.311c-1.073,0-1.945-0.873-1.945-1.947c0-1.072,0.873-1.945,1.945-1.945
		c1.073,0,1.946,0.873,1.946,1.945C14.054,42.438,13.182,43.311,12.108,43.311z"/>
	<path fill="#333333" d="M19.099,31.064h16.461c0.387,0,0.699-0.313,0.699-0.699c0-0.385-0.313-0.697-0.699-0.697H19.099
		c-0.386,0-0.699,0.313-0.699,0.697C18.4,30.752,18.713,31.064,19.099,31.064z"/>
	<path fill="#333333" d="M19.099,20.383h16.461c0.387,0,0.699-0.313,0.699-0.699s-0.313-0.699-0.699-0.699H19.099
		c-0.386,0-0.699,0.313-0.699,0.699S18.713,20.383,19.099,20.383z"/>
	<path fill="#333333" d="M15.726,15.732l-4.349,5.301l-2.235-3.107c-0.226-0.313-0.662-0.385-0.975-0.159
		c-0.313,0.225-0.384,0.662-0.159,0.975l3.296,4.583l5.501-6.707c0.245-0.298,0.202-0.739-0.097-0.983
		C16.411,15.391,15.97,15.435,15.726,15.732z"/>
	<path fill="#333333" d="M51.484,20.792l-3.867-2.646c-0.318-0.218-0.754-0.136-0.971,0.182l-2.072,3.027V6.248
		c0-1.873-1.523-3.397-3.396-3.397h-3.402V0.699C37.775,0.313,37.463,0,37.076,0H7.498C7.112,0,6.799,0.313,6.799,0.699v2.152H3.397
		C1.524,2.851,0,4.375,0,6.248v45.607c0,1.871,1.524,3.396,3.397,3.396h37.781c1.873,0,3.396-1.525,3.396-3.396V32.127l7.092-10.365
		c0.105-0.153,0.146-0.341,0.111-0.524C51.742,21.057,51.637,20.896,51.484,20.792z M8.197,4.248V2.851V1.397h28.182v1.454v1.397
		v1.516H8.197V4.248z M43.176,51.855c0,1.102-0.895,2-1.998,2H3.397c-1.103,0-2-0.898-2-2V6.248c0-1.103,0.897-2,2-2h3.402v2.215
		c0,0.386,0.313,0.699,0.699,0.699h29.578c0.387,0,0.699-0.313,0.699-0.699V4.248h3.402c1.104,0,1.998,0.897,1.998,2v17.148
		L32.938,38.361l-0.166,0.242l-0.041,0.061c-0.105,0.154-0.145,0.342-0.111,0.523c0.002,0.01,0.01,0.016,0.01,0.023l-0.238,1.137
		H19.099c-0.386,0-0.699,0.313-0.699,0.699c0,0.385,0.313,0.697,0.699,0.697h13l-0.633,3.018c-0.057,0.277,0.057,0.561,0.289,0.721
		c0.119,0.08,0.258,0.121,0.396,0.121c0.131,0,0.264-0.037,0.381-0.111l4.764-3.104c0.18-0.031,0.346-0.129,0.457-0.289l0.023-0.035
		l0.203-0.299l5.195-7.596V51.855z M33.955,40.348l1.91,1.307l0.201-0.131c-0.055,0.059-0.121,0.102-0.191,0.139
		c-0.025,0.014-0.047,0.025-0.076,0.035l-2.619,1.705l0.348-1.658l0.293-1.396l0.016-0.08L33.955,40.348z M44.574,29.652
		l-1.398,2.043l-6.057,8.855l-2.715-1.857l8.771-12.822l1.398-2.042l2.83-4.136l2.715,1.856L44.574,29.652z"/>
</g>
</svg>
