<?xml version="1.0" encoding="utf-8"?>
<!-- Generator: Adobe Illustrator 16.0.0, SVG Export Plug-In . SVG Version: 6.00 Build 0)  -->
<!DOCTYPE svg PUBLIC "-//W3C//DTD SVG 1.1//EN" "http://www.w3.org/Graphics/SVG/1.1/DTD/svg11.dtd">
<svg version="1.1" id="Layer_1" xmlns="http://www.w3.org/2000/svg" xmlns:xlink="http://www.w3.org/1999/xlink" x="0px" y="0px"
	 width="68px" height="56px" viewBox="0 0 68 56" enable-background="new 0 0 68 56" xml:space="preserve">
<path fill="#FFFFFF" d="M15.375,2c0,0-2.125,0.25-2.25,1.375S12.5,52.125,12.5,52.125s-0.125,1.125,1.25,2.5
	s40.625,0.25,40.625,0.25s-1.625-0.625-1.75-2.375s-0.5-5.25,0.5-5.75S55,45.5,55,45.5l0.125-41.625L53.875,2l-8-0.25L15.375,2z"/>
<path fill="#333333" d="M55.137,54.001h-0.395c-0.08-0.027-0.162-0.051-0.25-0.051c-0.707,0-1.283-0.576-1.283-1.285v-4.228
	c0-0.708,0.576-1.285,1.283-1.285c0.051,0,0.094-0.019,0.141-0.028h1.293L55.863,3.925c0-1.612-1.313-2.923-2.924-2.923h-4.727
	V0.425H36.189v0.577H14.997c-1.611,0-2.922,1.311-2.922,2.923v48.729c0,1.611,1.311,2.921,2.922,2.921h40.14
	c0.436,0,0.787-0.352,0.787-0.787S55.572,54.001,55.137,54.001z M37.607,2.577h9.188v20.241l-4.936-4.937l-4.252,4.784V2.577z
	 M41.92,19.948l6.293,6.294V2.577h4.727c0.744,0,1.348,0.604,1.348,1.349l0.061,41.623H22.325V2.577h13.864v23.817L41.92,19.948z
	 M13.65,3.925c0-0.743,0.604-1.348,1.347-1.348h5.754v42.972h-5.754c-0.485,0-0.943,0.119-1.347,0.329V3.925z M13.65,52.654v-4.183
	c0-0.743,0.604-1.348,1.347-1.348h36.97c-0.205,0.395-0.334,0.838-0.334,1.313v1.706c-0.135-0.108-0.301-0.184-0.486-0.184H14.53
	c-0.435,0-0.788,0.354-0.788,0.788s0.353,0.788,0.788,0.788h36.616c0.186,0,0.352-0.075,0.486-0.184v1.313
	c0,0.485,0.133,0.935,0.346,1.336H14.997C14.254,54.001,13.65,53.396,13.65,52.654z"/>
</svg>
