<?xml version="1.0" encoding="utf-8"?>
<!-- Generator: Adobe Illustrator 16.0.0, SVG Export Plug-In . SVG Version: 6.00 Build 0)  -->
<!DOCTYPE svg PUBLIC "-//W3C//DTD SVG 1.1//EN" "http://www.w3.org/Graphics/SVG/1.1/DTD/svg11.dtd">
<svg version="1.1" id="Layer_1" xmlns="http://www.w3.org/2000/svg" xmlns:xlink="http://www.w3.org/1999/xlink" x="0px" y="0px"
	 width="68px" height="56px" viewBox="0 0 68 56" enable-background="new 0 0 68 56" xml:space="preserve">
<g>
	<path fill="#333333" d="M65.473,12.118l0.007-0.034L13.789,2.712l0.087,9.406H5.769v14.315H1.917v12.541h3.852v14.314h60.314
		v-41.17H65.473z M3.424,27.939h2.345h0.753h0.753h9.75v9.527h-9.75H6.522H5.769H3.424V27.939z M7.276,38.974h11.256V26.433H7.276
		V13.625h6.613h0.753h0.753h48.189h0.772h0.219v2.441v35.715h-57.3V38.974z M15.313,4.519l41.906,7.599H15.382L15.313,4.519z"/>
	<path fill="#333333" d="M37.086,25.085c-1.894,0-3.49,0.738-4.79,2.215s-1.95,3.377-1.95,5.703v0.809
		c0,2.315,0.655,4.192,1.964,5.629s3.024,2.155,5.144,2.155c1.265,0,2.33-0.182,3.193-0.544c0.862-0.362,1.594-0.858,2.192-1.486
		l-0.75-1.207c-0.658,0.609-1.353,1.053-2.083,1.332s-1.582,0.42-2.553,0.42c-1.619,0-2.914-0.594-3.885-1.781
		c-0.971-1.187-1.457-2.692-1.457-4.518v-0.427h11.244v-1.501c0-2.109-0.548-3.769-1.641-4.981
		C40.62,25.691,39.077,25.085,37.086,25.085z M41.604,31.898h-9.434c0.196-1.569,0.733-2.847,1.611-3.833
		c0.878-0.986,1.979-1.479,3.304-1.479c1.422,0,2.531,0.458,3.326,1.376s1.192,2.083,1.192,3.495V31.898z"/>
</g>
</svg>
