<?xml version="1.0" encoding="utf-8"?>
<!-- Generator: Adobe Illustrator 16.0.0, SVG Export Plug-In . SVG Version: 6.00 Build 0)  -->
<!DOCTYPE svg PUBLIC "-//W3C//DTD SVG 1.1//EN" "http://www.w3.org/Graphics/SVG/1.1/DTD/svg11.dtd">
<svg version="1.1" id="Layer_1" xmlns="http://www.w3.org/2000/svg" xmlns:xlink="http://www.w3.org/1999/xlink" x="0px" y="0px"
	 width="68px" height="56px" viewBox="0 0 68 56" enable-background="new 0 0 68 56" xml:space="preserve">
<g>
	<path fill="#333333" d="M22.973,32.75c-0.415,0-0.75,0.336-0.75,0.75v11.642c0,0.415,0.335,0.751,0.75,0.751
		c0.415,0,0.75-0.336,0.75-0.751V33.5C23.723,33.086,23.387,32.75,22.973,32.75z"/>
	<path fill="#333333" d="M30.335,32.75c-0.415,0-0.75,0.336-0.75,0.75v11.642c0,0.415,0.335,0.751,0.75,0.751
		c0.415,0,0.751-0.336,0.751-0.751V33.5C31.086,33.086,30.75,32.75,30.335,32.75z"/>
	<path fill="#333333" d="M37.815,32.75c-0.414,0-0.75,0.336-0.75,0.75v11.642c0,0.415,0.336,0.751,0.75,0.751
		c0.415,0,0.751-0.336,0.751-0.751V33.5C38.566,33.086,38.23,32.75,37.815,32.75z"/>
	<path fill="#333333" d="M45.19,32.75c-0.414,0-0.75,0.336-0.75,0.75v11.642c0,0.415,0.336,0.751,0.75,0.751
		c0.415,0,0.75-0.336,0.75-0.751V33.5C45.94,33.086,45.605,32.75,45.19,32.75z"/>
	<path fill="#333333" d="M67.712,17.175c-0.143-0.166-0.35-0.261-0.569-0.261H52.557L43.914,4.231
		c-0.193-0.283-0.541-0.381-0.852-0.278c-0.078-0.027-0.158-0.049-0.245-0.049H24.868c-0.249,0-0.48,0.123-0.62,0.328l-8.643,12.683
		H1.019c-0.218,0-0.427,0.095-0.569,0.261c-0.143,0.166-0.206,0.385-0.173,0.601l1.501,9.917c0.055,0.367,0.371,0.638,0.741,0.638
		h2.267l2.879,23.108c0.047,0.376,0.366,0.657,0.744,0.657h51.342c0.379,0,0.698-0.281,0.744-0.657l2.879-23.108h2.268
		c0.371,0,0.687-0.271,0.741-0.638l1.501-9.917C67.918,17.561,67.854,17.341,67.712,17.175z M63.563,26.831h-0.757h-0.755H6.112
		H5.356H4.6H3.165l-1.273-8.416h1.66h0.756h10.275h0.907h0.909h0.856h34.508h0.908h0.907h10.275h0.756h1.66l-1.273,8.416H63.563z
		 M9.073,50.596L6.299,28.332h55.565L59.09,50.596H9.073z M41.424,5.404h1.394c0.024,0,0.046-0.012,0.071-0.014l7.853,11.524H20.043
		h-2.622l7.843-11.51H41.424z"/>
</g>
</svg>
