<?xml version="1.0" encoding="utf-8"?>
<!-- Generator: Adobe Illustrator 16.0.0, SVG Export Plug-In . SVG Version: 6.00 Build 0)  -->
<!DOCTYPE svg PUBLIC "-//W3C//DTD SVG 1.1//EN" "http://www.w3.org/Graphics/SVG/1.1/DTD/svg11.dtd">
<svg version="1.1" id="Layer_1" xmlns="http://www.w3.org/2000/svg" xmlns:xlink="http://www.w3.org/1999/xlink" x="0px" y="0px"
	 width="90px" height="44px" viewBox="0 0 90 44" enable-background="new 0 0 90 44" xml:space="preserve">
<g>
	<path fill="#676767" d="M56.181,0H33.82c-2.509,0-4.551,2.042-4.551,4.55v34.899c0,2.51,2.042,4.551,4.551,4.551h22.36
		c2.508,0,4.55-2.041,4.55-4.551V4.55C60.73,2.042,58.688,0,56.181,0z M33.82,1.979h22.36c1.418,0,2.571,1.154,2.571,2.572v2.646
		H31.248V4.55C31.248,3.132,32.402,1.979,33.82,1.979z M58.752,9.175v21.568H31.248V9.175H58.752z M56.181,42.021H33.82
		c-1.418,0-2.572-1.153-2.572-2.572v-6.727h27.504v6.727C58.752,40.868,57.599,42.021,56.181,42.021z"/>
	<circle fill="#676767" cx="45" cy="36.926" r="1.929"/>
</g>
</svg>
