<?xml version="1.0" encoding="utf-8"?>
<!-- Generator: Adobe Illustrator 16.0.0, SVG Export Plug-In . SVG Version: 6.00 Build 0)  -->
<!DOCTYPE svg PUBLIC "-//W3C//DTD SVG 1.1//EN" "http://www.w3.org/Graphics/SVG/1.1/DTD/svg11.dtd">
<svg version="1.1" id="Layer_1" xmlns="http://www.w3.org/2000/svg" xmlns:xlink="http://www.w3.org/1999/xlink" x="0px" y="0px"
	 width="90px" height="44px" viewBox="0 0 90 44" enable-background="new 0 0 90 44" xml:space="preserve">
<g>
	<path fill="#676767" d="M64,4.969H26c-2.205,0-4,1.794-4,4v26.063c0,2.206,1.795,4,4,4h38c2.205,0,4-1.794,4-4V8.969
		C68,6.763,66.205,4.969,64,4.969z M26,6.969h38c1.104,0,2,0.897,2,2v5.563H24V8.969C24,7.866,24.896,6.969,26,6.969z M64,37.031H26
		c-1.104,0-2-0.897-2-2v-18.5h42v18.5C66,36.134,65.104,37.031,64,37.031z"/>
	<rect x="29.25" y="25.781" fill="#676767" width="4.75" height="4.75"/>
</g>
</svg>
