<?xml version="1.0" encoding="utf-8"?>
<!-- Generator: Adobe Illustrator 16.0.0, SVG Export Plug-In . SVG Version: 6.00 Build 0)  -->
<!DOCTYPE svg PUBLIC "-//W3C//DTD SVG 1.1//EN" "http://www.w3.org/Graphics/SVG/1.1/DTD/svg11.dtd">
<svg version="1.1" id="Layer_1" xmlns="http://www.w3.org/2000/svg" xmlns:xlink="http://www.w3.org/1999/xlink" x="0px" y="0px"
	 width="90px" height="44px" viewBox="0 0 90 44" enable-background="new 0 0 90 44" xml:space="preserve">
<g>
	<path fill="#676767" d="M60.517,31.395l-4.872-3.793c-1.377-1.071-3.467-1.065-4.838,0.018l-1.084,0.855
		c-0.746,0.59-1.879,0.521-2.548-0.148l-8.715-8.715c-0.688-0.689-0.752-1.784-0.148-2.549l0.855-1.083
		c1.122-1.42,1.129-3.41,0.018-4.838l-3.792-4.873c-0.748-0.961-1.876-1.512-3.095-1.512c-1.046,0-2.03,0.408-2.771,1.148
		l-3.112,3.113c-1.76,1.76-4.326,7.381,9.823,21.531c9.194,9.193,14.823,11.124,17.926,11.125c0.001,0,0.001,0,0.002,0
		c1.901,0,3.009-0.709,3.603-1.303l3.112-3.111c0.795-0.795,1.211-1.895,1.141-3.016C61.952,33.123,61.403,32.084,60.517,31.395z
		 M59.467,35.846l-3.112,3.111c-0.462,0.462-1.239,0.717-2.188,0.717h-0.001c-2.231,0-7.345-1.37-16.513-10.539
		c-10.527-10.528-11.871-16.655-9.823-18.703l3.112-3.113c0.363-0.362,0.844-0.562,1.356-0.562c0.598,0,1.15,0.27,1.517,0.74
		l3.792,4.873c0.544,0.7,0.541,1.674-0.009,2.37l-0.855,1.083c-1.233,1.56-1.102,3.796,0.304,5.203l8.715,8.715
		c0.741,0.74,1.726,1.148,2.772,1.148c0.878,0,1.74-0.3,2.43-0.844l1.083-0.857c0.677-0.533,1.692-0.536,2.37-0.008l4.872,3.793
		c0.44,0.343,0.702,0.838,0.737,1.396S59.861,35.45,59.467,35.846z"/>
	
		<rect x="54.065" y="7.133" transform="matrix(0.7706 0.6373 -0.6373 0.7706 20.433 -32.2842)" fill="#676767" width="2" height="10.219"/>
	
		<rect x="54.925" y="19.995" transform="matrix(-0.9679 0.2513 -0.2513 -0.9679 123.171 26.2583)" fill="#676767" width="9.966" height="2"/>
	
		<rect x="45.74" y="2.392" transform="matrix(0.9518 0.3067 -0.3067 0.9518 4.5189 -13.9784)" fill="#676767" width="2" height="9.997"/>
</g>
</svg>
