<?xml version="1.0" encoding="utf-8"?>
<!-- Generator: Adobe Illustrator 16.0.0, SVG Export Plug-In . SVG Version: 6.00 Build 0)  -->
<!DOCTYPE svg PUBLIC "-//W3C//DTD SVG 1.1//EN" "http://www.w3.org/Graphics/SVG/1.1/DTD/svg11.dtd">
<svg version="1.1" id="Layer_1" xmlns="http://www.w3.org/2000/svg" xmlns:xlink="http://www.w3.org/1999/xlink" x="0px" y="0px"
	 width="90px" height="44px" viewBox="0 0 90 44" enable-background="new 0 0 90 44" xml:space="preserve">
<g>
	<path fill="#666766" d="M50.194,2.662c-3.063,0-5.949,0.766-8.49,2.1c-0.625-0.065-1.258-0.1-1.899-0.1
		c-10.111,0-18.338,8.227-18.338,18.338s8.227,18.338,18.338,18.338c3.063,0,5.948-0.765,8.489-2.099
		c0.625,0.064,1.258,0.099,1.899,0.099c10.111,0,18.338-8.227,18.338-18.338S60.306,2.662,50.194,2.662z M47.919,37.16
		c-0.97,0.559-1.998,1.024-3.08,1.376c-1.587,0.516-3.277,0.802-5.034,0.802c-9.009,0-16.338-7.33-16.338-16.338
		c0-8.643,6.75-15.72,15.253-16.282c0.36-0.024,0.719-0.056,1.085-0.056c0.774,0,1.529,0.073,2.275,0.178
		C50.013,7.953,56.143,14.766,56.143,23C56.143,29.054,52.824,34.338,47.919,37.16z M51.279,37.283
		c4.179-3.364,6.863-8.513,6.863-14.283c0-8.249-5.476-15.238-12.982-17.535c1.587-0.516,3.277-0.803,5.034-0.803
		c9.009,0,16.338,7.329,16.338,16.338C66.532,29.642,59.781,36.721,51.279,37.283z"/>
	<path fill="#666766" d="M42.886,23.807c-0.192,1.232-0.4,2.497-0.592,3.777h-0.08c-0.272-1.28-0.528-2.545-0.801-3.777
		l-1.536-6.131h-1.633l-1.521,6.131c-0.272,1.248-0.545,2.514-0.801,3.777h-0.063l-0.625-3.777l-1.104-6.131h-1.92l2.417,11.781
		h2.24l1.553-6.547c0.192-0.928,0.385-1.809,0.544-2.705h0.08c0.16,0.896,0.337,1.777,0.545,2.705l1.584,6.547h2.289l2.321-11.781
		h-1.777L42.886,23.807z"/>
</g>
</svg>
