<?xml version="1.0" encoding="utf-8"?>
<!-- Generator: Adobe Illustrator 16.0.0, SVG Export Plug-In . SVG Version: 6.00 Build 0)  -->
<!DOCTYPE svg PUBLIC "-//W3C//DTD SVG 1.1//EN" "http://www.w3.org/Graphics/SVG/1.1/DTD/svg11.dtd">
<svg version="1.1" id="Layer_1" xmlns="http://www.w3.org/2000/svg" xmlns:xlink="http://www.w3.org/1999/xlink" x="0px" y="0px"
	 width="90px" height="44px" viewBox="0 0 90 44" enable-background="new 0 0 90 44" xml:space="preserve">
<g>
	<path fill="#666766" d="M7.332,8.052c0,0-2.096,0.182-3.281,1.185V8.052H0.223v20.781h3.737v-7.566c0,0,1.093,1.003,3.372,1.003
		c0,0,6.556,0.183,7.109-7.109C14.44,15.161,14.44,8.052,7.332,8.052z M7.242,18.442c-1.85,0-3.35-1.479-3.35-3.304
		c0-1.824,1.5-3.304,3.35-3.304c1.85,0,3.35,1.479,3.35,3.304C10.592,16.963,9.092,18.442,7.242,18.442z"/>
	<path fill="#666766" d="M28.111,23.545v-9.021h-3.919l0.092,1.185c-1.732-1.244-3.828-1.185-3.828-1.185
		c-7.017,0.455-6.562,7.428-6.562,7.428c0.243,6.881,6.653,6.881,6.653,6.881c2.765,0,4.375-1.458,4.375-1.458l1.368,2.004
		l2.916-2.461C28.02,25.78,28.111,23.545,28.111,23.545z M20.721,25.051c-1.849,0-3.349-1.479-3.349-3.304
		c0-1.826,1.5-3.304,3.349-3.304c1.85,0,3.35,1.479,3.35,3.304C24.071,23.571,22.571,25.051,20.721,25.051z"/>
	<path fill="#666766" d="M37.315,22.499c0,2.414-2.324,2.552-2.324,2.552c-2.46,0-2.552-2.507-2.552-2.507v-8.021h-3.235v9.799
		c0.684,4.74,5.992,4.512,5.992,4.512c1.253,0,2.666-0.912,2.666-0.912c-0.273,6.137-4.539,3.893-4.539,3.893L30.8,34.255
		c2.37,1.914,4.397,1.685,4.397,1.685c5.811,0,5.993-6.241,5.993-6.241V14.522h-3.874V22.499z"/>
	<path fill="#666766" d="M48.301,14.113c0,0-5.516-0.228-6.033,5.446v9.274h3.826v-8.66c0,0,0.153-2.255,2.228-2.255
		c0,0,1.845-0.091,2.188,2.164v8.751h3.827v-9.252C54.336,19.581,53.841,14.113,48.301,14.113z"/>
	<path fill="#666766" d="M62.838,14.522c-4.027,0-7.29,3.325-7.29,7.429c0,4.103,3.263,7.427,7.29,7.427
		c4.026,0,7.29-3.324,7.29-7.427C70.128,17.848,66.864,14.522,62.838,14.522z M62.793,25.125c-1.849,0-3.349-1.479-3.349-3.304
		s1.5-3.304,3.349-3.304c1.85,0,3.35,1.479,3.35,3.304S64.643,25.125,62.793,25.125z"/>
	<rect x="85.973" y="14.645" fill="#666766" width="3.805" height="2.703"/>
	<rect x="78.39" y="18.473" fill="#666766" width="3.797" height="1.094"/>
	<rect x="85.973" y="18.473" fill="#666766" width="3.805" height="1.094"/>
	<rect x="78.39" y="14.645" fill="#666766" width="3.797" height="2.703"/>
	<rect x="70.732" y="14.645" fill="#666766" width="3.829" height="2.703"/>
	<rect x="70.732" y="18.473" fill="#666766" width="3.829" height="1.094"/>
	<path fill="#666766" d="M85.973,22.726c0,2.581-1.994,2.284-1.994,2.284c-1.791,0-1.792-2.284-1.792-2.284v-2.035H78.39v2.035
		c0,2.521-1.977,2.28-1.977,2.28c-1.699,0-1.852-2.28-1.852-2.28v-2.035h-3.829v3.829c0.671,4.313,5.652,4.313,5.652,4.313
		c2.582,0,3.889-1.611,3.889-1.611c1.062,1.611,3.615,1.611,3.615,1.611c5.604,0.241,5.889-4.802,5.889-4.802v-3.34h-3.805V22.726z"
		/>
</g>
</svg>
