<?xml version="1.0" encoding="utf-8"?>
<!-- Generator: Adobe Illustrator 16.0.0, SVG Export Plug-In . SVG Version: 6.00 Build 0)  -->
<!DOCTYPE svg PUBLIC "-//W3C//DTD SVG 1.1//EN" "http://www.w3.org/Graphics/SVG/1.1/DTD/svg11.dtd">
<svg version="1.1" id="Layer_1" xmlns="http://www.w3.org/2000/svg" xmlns:xlink="http://www.w3.org/1999/xlink" x="0px" y="0px"
	 width="90px" height="44px" viewBox="0 0 90 44" enable-background="new 0 0 90 44" xml:space="preserve">
<g>
	<g>
		<path fill="#676767" d="M68.307,44H21.692C10.91,44,2.139,35.227,2.139,24.446v-4.894C2.139,8.771,10.91,0,21.692,0h46.614
			C79.09,0,87.861,8.771,87.861,19.553v4.894C87.861,35.227,79.09,44,68.307,44z M21.692,2.399c-9.46,0-17.154,7.695-17.154,17.153
			v4.894c0,9.459,7.694,17.154,17.154,17.154h46.614c9.46,0,17.154-7.695,17.154-17.154v-4.894c0-9.458-7.694-17.153-17.154-17.153
			H21.692z"/>
	</g>
	<g>
		<path fill="#676767" d="M25.662,16.152h1.613v14.165h-1.613v-7.274h-1.613c-0.15,2.957-1.396,4.771-3.243,4.771
			c-1.966,0-3.259-2.066-3.259-5.394c0-3.327,1.293-5.377,3.259-5.377c1.814,0,3.042,1.731,3.226,4.571h1.631V16.152z
			 M22.486,22.419c0-2.402-0.639-3.747-1.681-3.747s-1.681,1.344-1.681,3.747c0,2.404,0.639,3.765,1.681,3.765
			S22.486,24.823,22.486,22.419z M30.351,15.867v15.156h-1.646V15.867H30.351z"/>
		<path fill="#676767" d="M44.91,27.662v1.428H31.166v-1.428H44.91z M43.565,24.704c-2.469-0.505-4.604-2.084-5.595-4.167
			c-0.992,2.083-3.126,3.662-5.596,4.167l-0.739-1.427c2.99-0.556,5.427-2.891,5.427-5.293v-1.143h1.832v1.143
			c0,2.419,2.436,4.753,5.428,5.293L43.565,24.704z"/>
		<path fill="#676767" d="M58.646,27.646v1.428H44.938v-1.428H58.646z M55.371,21.495c0.034-0.807,0.034-1.579,0.034-2.352v-0.438
			h-8.872v-1.395h10.568v1.832c0,2.201,0,4.286-0.671,7.476l-1.715-0.15c0.319-1.361,0.488-2.555,0.572-3.663l-8.957,0.454
			l-0.218-1.412L55.371,21.495z"/>
		<path fill="#676767" d="M72.453,27.83v1.428H58.707V27.83h5.981v-2.588h-4.317v-4.889h8.736v-2.034h-8.771v-1.395h10.484v4.806
			h-8.754v2.117h9.09v1.395h-4.738v2.588H72.453z"/>
	</g>
</g>
</svg>
