<?xml version="1.0" encoding="utf-8"?>
<!-- Generator: Adobe Illustrator 16.0.0, SVG Export Plug-In . SVG Version: 6.00 Build 0)  -->
<!DOCTYPE svg PUBLIC "-//W3C//DTD SVG 1.1//EN" "http://www.w3.org/Graphics/SVG/1.1/DTD/svg11.dtd">
<svg version="1.1" id="Layer_1" xmlns="http://www.w3.org/2000/svg" xmlns:xlink="http://www.w3.org/1999/xlink" x="0px" y="0px"
	 width="50px" height="28px" viewBox="0 0 50 28" enable-background="new 0 0 50 28" xml:space="preserve">
<g>
	<g>
		<path fill="#FFFFFF" d="M50,14c0,7.731-6.205,14-13.858,14H13.859C6.206,28,0,21.73,0,14l0,0C0,6.268,6.206,0,13.859,0h22.282
			C43.795,0,50,6.268,50,14L50,14z"/>
		<path fill="#888888" d="M36.142,1.994c6.553,0,11.885,5.386,11.885,12.006c0,6.622-5.332,12.006-11.885,12.006H13.859
			C7.306,26.006,1.974,20.621,1.974,14c0-6.62,5.332-12.006,11.886-12.006H36.142 M36.142,0H13.859C6.206,0,0,6.268,0,14
			c0,7.731,6.206,14,13.859,14h22.282C43.795,28,50,21.73,50,14C50,6.268,43.795,0,36.142,0L36.142,0z"/>
	</g>
	<path fill="#888888" d="M36.647,13.688l-0.217,0.164c-0.972,0.732-2.066,1.799-2.923,2.836V7.52h-1.717v9.168
		c-0.855-1.036-1.949-2.103-2.921-2.836l-0.217-0.164l-0.908,1.5l0.175,0.137c1.618,1.266,3.352,3.197,4.522,5.043l0.208,0.328
		l0.208-0.328c1.171-1.846,2.903-3.777,4.522-5.043l0.174-0.137L36.647,13.688z"/>
	<g>
		<path fill="#888888" d="M15.475,7.848h3.838c2.591,0,4.58,0.909,4.58,3.701c0,2.696-2.006,3.909-4.518,3.909h-1.563v4.196h-2.338
			V7.848z M19.218,13.591c1.61,0,2.386-0.686,2.386-2.042c0-1.372-0.854-1.835-2.465-1.835h-1.326v3.877H19.218z"/>
	</g>
</g>
</svg>
