<?xml version="1.0" encoding="utf-8"?>
<!-- Generator: Adobe Illustrator 16.0.0, SVG Export Plug-In . SVG Version: 6.00 Build 0)  -->
<!DOCTYPE svg PUBLIC "-//W3C//DTD SVG 1.1//EN" "http://www.w3.org/Graphics/SVG/1.1/DTD/svg11.dtd">
<svg version="1.1" id="Layer_1" xmlns="http://www.w3.org/2000/svg" xmlns:xlink="http://www.w3.org/1999/xlink" x="0px" y="0px"
	 width="36px" height="36px" viewBox="0 0 36 36" enable-background="new 0 0 36 36" xml:space="preserve">
<g>
	<path fill="#ABABAB" d="M18,0C8.075,0,0,8.075,0,18c0,9.925,8.075,18,18,18s18-8.075,18-18C36,8.075,27.926,0,18,0z M18,34
		C9.178,34,2,26.822,2,18C2,9.177,9.178,2,18,2c8.822,0,16,7.177,16,16C34,26.822,26.822,34,18,34z"/>
	<path fill="#ABABAB" d="M25.58,12.091H10.42c-0.553,0-1,0.448-1,1s0.447,1,1,1h15.16c0.552,0,1-0.448,1-1
		S26.132,12.091,25.58,12.091z"/>
	<path fill="#ABABAB" d="M25.58,17.43H10.42c-0.553,0-1,0.448-1,1s0.447,1,1,1h15.16c0.552,0,1-0.448,1-1S26.132,17.43,25.58,17.43z
		"/>
	<path fill="#ABABAB" d="M25.58,22.77H10.42c-0.553,0-1,0.448-1,1s0.447,1,1,1h15.16c0.552,0,1-0.448,1-1S26.132,22.77,25.58,22.77z
		"/>
</g>
</svg>
