<?xml version="1.0" encoding="utf-8"?>
<!-- Generator: Adobe Illustrator 16.0.0, SVG Export Plug-In . SVG Version: 6.00 Build 0)  -->
<!DOCTYPE svg PUBLIC "-//W3C//DTD SVG 1.1//EN" "http://www.w3.org/Graphics/SVG/1.1/DTD/svg11.dtd">
<svg version="1.1" id="Layer_1" xmlns="http://www.w3.org/2000/svg" xmlns:xlink="http://www.w3.org/1999/xlink" x="0px" y="0px"
	 width="36px" height="36px" viewBox="0 0 36 36" enable-background="new 0 0 36 36" xml:space="preserve">
<g>
	<path fill="#ABABAB" d="M26.245,17.143L13.948,9.759c-0.31-0.186-0.694-0.191-1.008-0.013c-0.313,0.177-0.507,0.51-0.507,0.87
		v14.766c0,0.36,0.193,0.692,0.507,0.87c0.153,0.087,0.323,0.13,0.493,0.13c0.178,0,0.356-0.048,0.515-0.143l12.297-7.383
		c0.302-0.181,0.486-0.506,0.486-0.857S26.547,17.323,26.245,17.143z M14.434,23.616V12.383L23.788,18L14.434,23.616z"/>
	<path fill="#ABABAB" d="M18.001,0C8.075,0,0,8.074,0,17.999C0,27.925,8.075,36,18.001,36c9.925,0,18-8.075,18-18.001
		C36.001,8.074,27.926,0,18.001,0z M18.001,34C9.178,34,2,26.821,2,17.999C2,9.177,9.178,2,18.001,2c8.822,0,16,7.177,16,15.999
		C34.001,26.821,26.823,34,18.001,34z"/>
</g>
</svg>
