<?xml version="1.0" encoding="utf-8"?>
<!-- Generator: Adobe Illustrator 16.0.0, SVG Export Plug-In . SVG Version: 6.00 Build 0)  -->
<!DOCTYPE svg PUBLIC "-//W3C//DTD SVG 1.1//EN" "http://www.w3.org/Graphics/SVG/1.1/DTD/svg11.dtd">
<svg version="1.1" id="Layer_1" xmlns="http://www.w3.org/2000/svg" xmlns:xlink="http://www.w3.org/1999/xlink" x="0px" y="0px"
	 width="40px" height="28px" viewBox="0 0 40 28" enable-background="new 0 0 40 28" xml:space="preserve">
<g>
	<g>
		<path fill="#FFFFFF" d="M40,14c0,7.731-6.216,14-13.881,14H13.881C6.216,28,0,21.731,0,14l0,0C0,6.269,6.216,0,13.881,0h12.238
			C33.784,0,40,6.269,40,14L40,14z"/>
		<path fill="#888888" d="M26.119,1.994c6.564,0,11.904,5.386,11.904,12.006c0,6.62-5.34,12.007-11.904,12.007H13.881
			C7.317,26.007,1.977,20.62,1.977,14c0-6.621,5.34-12.006,11.905-12.006H26.119 M26.119,0H13.881C6.216,0,0,6.269,0,14
			s6.216,14,13.881,14h12.238C33.784,28,40,21.731,40,14S33.784,0,26.119,0L26.119,0z"/>
	</g>
	<g>
		<path fill="#888888" d="M13.05,7.988h2.389l0.934,5.76c0.174,1.244,0.364,2.505,0.538,3.765h0.063
			c0.237-1.26,0.49-2.537,0.744-3.765l1.36-5.76h1.993l1.361,5.76c0.253,1.212,0.49,2.489,0.743,3.765h0.079
			c0.174-1.276,0.348-2.537,0.522-3.765l0.917-5.76h2.23l-2.167,11.806h-2.911l-1.313-5.839c-0.19-0.925-0.364-1.834-0.506-2.729
			h-0.063c-0.158,0.894-0.316,1.803-0.506,2.729l-1.281,5.839h-2.863L13.05,7.988z"/>
	</g>
</g>
</svg>
