<?xml version="1.0" encoding="utf-8"?>
<!-- Generator: Adobe Illustrator 16.0.0, SVG Export Plug-In . SVG Version: 6.00 Build 0)  -->
<!DOCTYPE svg PUBLIC "-//W3C//DTD SVG 1.1//EN" "http://www.w3.org/Graphics/SVG/1.1/DTD/svg11.dtd">
<svg version="1.1" id="Layer_1" xmlns="http://www.w3.org/2000/svg" xmlns:xlink="http://www.w3.org/1999/xlink" x="0px" y="0px"
	 width="50px" height="48px" viewBox="0 0 50 48" enable-background="new 0 0 50 48" xml:space="preserve">
<g>
	<path fill="#222222" d="M10.85,31.489c-0.661,0-1.197,0.536-1.197,1.196c0,0.661,0.536,1.196,1.197,1.196h11.526
		c0.661,0,1.197-0.535,1.197-1.196c0-0.66-0.536-1.196-1.197-1.196H10.85z"/>
	<path fill="#222222" d="M27.611,23.206c0-0.66-0.536-1.196-1.198-1.196H10.85c-0.661,0-1.197,0.536-1.197,1.196
		c0,0.661,0.536,1.196,1.197,1.196h15.563C27.075,24.401,27.611,23.866,27.611,23.206z"/>
	<path fill="#222222" d="M31.709,13.759c0-0.661-0.534-1.196-1.196-1.196H10.85c-0.661,0-1.197,0.535-1.197,1.196
		c0,0.66,0.536,1.195,1.197,1.195h19.663C31.175,14.955,31.709,14.419,31.709,13.759z"/>
	<path fill="#222222" d="M49.379,32.848l-3.696-2.472c0.433-1.017,0.676-2.136,0.676-3.308c0-4.666-3.8-8.461-8.468-8.461
		s-8.465,3.795-8.465,8.461c0,4.664,3.797,8.46,8.465,8.46c2.637,0,4.995-1.212,6.55-3.107l3.606,2.415
		c0.206,0.137,0.438,0.201,0.666,0.201c0.386,0,0.764-0.187,0.994-0.529C50.074,33.96,49.928,33.216,49.379,32.848z M37.891,33.137
		c-3.349,0-6.073-2.723-6.073-6.068c0-3.347,2.725-6.07,6.073-6.07s6.073,2.723,6.073,6.07
		C43.964,30.414,41.239,33.137,37.891,33.137z"/>
	<path fill="#222222" d="M40.218,36.732c-0.663,0-1.197,0.536-1.197,1.197v5.133c0,1.46-1.189,2.646-2.65,2.646H4.953
		c-1.461,0-2.651-1.187-2.651-2.646V27.655c0.002-0.034,0.021-0.065,0.021-0.102V5.134c0-1.457,1.188-2.642,2.65-2.642h31.417
		c1.461,0,2.65,1.185,2.65,2.642v9.993c0,0.66,0.536,1.196,1.197,1.196s1.196-0.536,1.196-1.196V5.134
		c0-2.774-2.261-5.033-5.044-5.033H4.973c-2.781,0-5.043,2.259-5.043,5.033v14.225c-0.003,0.036-0.021,0.065-0.021,0.102v23.602
		c0,2.777,2.263,5.039,5.044,5.039H36.37c2.335,0,4.286-1.603,4.857-3.759c0.107-0.18,0.186-0.376,0.186-0.601V37.93
		C41.413,37.269,40.878,36.732,40.218,36.732z"/>
</g>
</svg>
