<?xml version="1.0" encoding="utf-8"?>
<!-- Generator: Adobe Illustrator 16.0.0, SVG Export Plug-In . SVG Version: 6.00 Build 0)  -->
<!DOCTYPE svg PUBLIC "-//W3C//DTD SVG 1.1//EN" "http://www.w3.org/Graphics/SVG/1.1/DTD/svg11.dtd">
<svg version="1.1" id="Layer_1" xmlns="http://www.w3.org/2000/svg" xmlns:xlink="http://www.w3.org/1999/xlink" x="0px" y="0px"
	 width="48px" height="44px" viewBox="0 0 48 44" enable-background="new 0 0 48 44" xml:space="preserve">
<path fill="#1D1D1B" d="M48,8.087H36.475c0.97-1.139,1.294-2.531,0.909-3.963c-0.499-1.859-2.118-3.45-4.028-3.961
	c-1.589-0.426-3.155-0.012-4.301,1.132l-5.139,5.126l-5.14-5.126c-2.108-2.103-5.115-1.374-6.874,0.378
	c-1.608,1.604-2.407,4.244-0.547,6.414H0v12.596h4.845V44h38.311V20.684H48V8.087z M30.448,2.685
	c0.824-0.823,1.758-0.794,2.397-0.623c1.214,0.324,2.322,1.406,2.635,2.571c0.237,0.886,0.006,1.687-0.692,2.383
	c-0.378,0.378-0.348,0.827-0.313,1.071h-8.89l-0.277-0.276L30.448,2.685z M25.691,42.034h-3.384V19.703c0,0,0-0.001,0-0.002
	s0-0.001,0-0.002v-8.895l0.753-0.751h1.709l0.922,0.919V42.034z M13.04,7.015c-1.368-1.364-0.717-2.981,0.256-3.951
	c1.074-1.073,2.813-1.648,4.086-0.379l5.14,5.126l-0.277,0.276h-8.89C13.388,7.877,13.433,7.409,13.04,7.015z M1.971,10.053h18.303
	l-2.441,2.435c-0.385,0.383-0.385,1.006,0,1.39c0.192,0.192,0.445,0.288,0.697,0.288s0.504-0.096,0.697-0.288l1.111-1.108v5.949
	H1.971V10.053z M6.815,20.684h13.521v21.351H6.815V20.684z M41.185,42.034H27.662V20.684h13.522V42.034z M46.029,18.718H27.662
	v-5.781l0.903,0.901c0.192,0.192,0.445,0.288,0.697,0.288s0.504-0.096,0.696-0.288c0.385-0.384,0.385-1.006,0-1.39l-2.402-2.396
	h18.473V18.718z"/>
</svg>
