<?xml version="1.0" encoding="utf-8"?>
<!-- Generator: Adobe Illustrator 16.0.0, SVG Export Plug-In . SVG Version: 6.00 Build 0)  -->
<!DOCTYPE svg PUBLIC "-//W3C//DTD SVG 1.1//EN" "http://www.w3.org/Graphics/SVG/1.1/DTD/svg11.dtd">
<svg version="1.1" id="Layer_1" xmlns="http://www.w3.org/2000/svg" xmlns:xlink="http://www.w3.org/1999/xlink" x="0px" y="0px"
	 width="90px" height="64px" viewBox="0 0 90 64" enable-background="new 0 0 90 64" xml:space="preserve">
<g>
	<path fill="#333333" d="M21.353,14.587h15.848c0.487,0,0.881-0.395,0.881-0.881s-0.394-0.88-0.881-0.88H21.353
		c-0.487,0-0.88,0.394-0.88,0.88S20.865,14.587,21.353,14.587z"/>
	<path fill="#333333" d="M21.353,22.529h15.848c0.487,0,0.881-0.394,0.881-0.88c0-0.487-0.394-0.881-0.881-0.881H21.353
		c-0.487,0-0.88,0.394-0.88,0.881C20.472,22.135,20.865,22.529,21.353,22.529z"/>
	<path fill="#333333" d="M21.353,30.475h15.848c0.487,0,0.881-0.394,0.881-0.88c0-0.486-0.394-0.881-0.881-0.881H21.353
		c-0.487,0-0.88,0.395-0.88,0.881C20.472,30.081,20.865,30.475,21.353,30.475z"/>
	<path fill="#333333" d="M68.396,12.826H52.55c-0.487,0-0.881,0.394-0.881,0.88s0.394,0.881,0.881,0.881h15.846
		c0.487,0,0.882-0.395,0.882-0.881S68.883,12.826,68.396,12.826z"/>
	<path fill="#333333" d="M68.396,20.769H52.55c-0.487,0-0.881,0.394-0.881,0.881c0,0.486,0.394,0.88,0.881,0.88h15.846
		c0.487,0,0.882-0.394,0.882-0.88C69.277,21.163,68.883,20.769,68.396,20.769z"/>
	<path fill="#333333" d="M68.396,28.714H52.55c-0.487,0-0.881,0.395-0.881,0.881c0,0.486,0.394,0.88,0.881,0.88h15.846
		c0.487,0,0.882-0.394,0.882-0.88C69.277,29.108,68.883,28.714,68.396,28.714z"/>
	<path fill="#333333" d="M84.119,8.706h-7.043V3.555c0-0.486-0.394-0.88-0.88-0.88H44.999H13.804c-0.487,0-0.88,0.394-0.88,0.88
		v5.151H5.88C5.393,8.706,5,9.1,5,9.586V52.78c0,0.486,0.393,0.88,0.88,0.88h61.635v6.784c0,0.486,0.395,0.881,0.88,0.881
		s0.882-0.395,0.882-0.881V53.66h14.842c0.485,0,0.881-0.394,0.881-0.88V9.586C85,9.1,84.604,8.706,84.119,8.706z M44.118,51.899
		H6.76V10.467h6.164v35.588c0,0.487,0.393,0.881,0.88,0.881h30.314V51.899z M44.118,8.706v1.761v34.708H14.684V10.467V8.706V4.436
		h29.434V8.706z M67.516,51.899H45.879v-4.964h21.636V51.899z M68.396,45.175H45.879V10.467V8.706V4.436h29.436v4.271v1.761v34.708
		H68.396z M83.238,51.899H69.277v-4.964h6.919c0.486,0,0.88-0.394,0.88-0.881V10.467h6.162V51.899z"/>
</g>
</svg>
