<?xml version="1.0" encoding="utf-8"?>
<!-- Generator: Adobe Illustrator 16.0.0, SVG Export Plug-In . SVG Version: 6.00 Build 0)  -->
<!DOCTYPE svg PUBLIC "-//W3C//DTD SVG 1.1//EN" "http://www.w3.org/Graphics/SVG/1.1/DTD/svg11.dtd">
<svg version="1.1" id="Layer_1" xmlns="http://www.w3.org/2000/svg" xmlns:xlink="http://www.w3.org/1999/xlink" x="0px" y="0px"
	 width="90px" height="64px" viewBox="0 0 90 64" enable-background="new 0 0 90 64" xml:space="preserve">
<path fill="#333333" d="M32.663,6.409v9.24H20.051l-5.424,14.348H5v21.862h8.627c0.412,3.228,3.17,5.732,6.507,5.732
	c3.337,0,6.096-2.505,6.509-5.732h6.019h2.606h28.587c0.412,3.228,3.17,5.732,6.506,5.732c3.339,0,6.099-2.505,6.511-5.732h8.126
	V40.11H85V6.409H32.663z M34.332,8.078h48.999v30.364H35.268h-0.936V15.649V8.078z M18.825,24.307h5.369l-0.274,5.708h-7.47
	L18.825,24.307z M20.134,55.922c-2.415,0-4.422-1.76-4.82-4.063c-0.047-0.271-0.077-0.55-0.077-0.835s0.029-0.563,0.077-0.834
	c0.398-2.303,2.405-4.062,4.82-4.062c2.416,0,4.423,1.759,4.822,4.062c0.047,0.271,0.077,0.549,0.077,0.834
	s-0.029,0.563-0.077,0.835C24.558,54.162,22.55,55.922,20.134,55.922z M26.643,50.189c-0.413-3.227-3.171-5.73-6.509-5.73
	c-3.336,0-6.095,2.504-6.507,5.73H6.668V31.665h7.288l-0.008,0.019H25.51l0.435-9.046h-6.751l2.012-5.321h11.458v21.124h-0.002
	v11.748H26.643z M70.36,55.922c-2.415,0-4.422-1.76-4.819-4.063c-0.047-0.271-0.076-0.55-0.076-0.835s0.029-0.563,0.076-0.834
	c0.397-2.303,2.405-4.062,4.819-4.062c2.417,0,4.426,1.759,4.824,4.062c0.047,0.271,0.076,0.549,0.076,0.834
	s-0.029,0.563-0.076,0.835C74.786,54.162,72.777,55.922,70.36,55.922z M83.329,50.189H76.87c-0.412-3.227-3.171-5.73-6.51-5.73
	c-3.336,0-6.094,2.504-6.505,5.73H35.268H34.33V40.11h0.938h48.062V50.189z"/>
</svg>
