<?xml version="1.0" encoding="utf-8"?>
<!-- Generator: Adobe Illustrator 16.0.0, SVG Export Plug-In . SVG Version: 6.00 Build 0)  -->
<!DOCTYPE svg PUBLIC "-//W3C//DTD SVG 1.1//EN" "http://www.w3.org/Graphics/SVG/1.1/DTD/svg11.dtd">
<svg version="1.1" id="Layer_1" xmlns="http://www.w3.org/2000/svg" xmlns:xlink="http://www.w3.org/1999/xlink" x="0px" y="0px"
	 width="90px" height="64px" viewBox="0 0 90 64" enable-background="new 0 0 90 64" xml:space="preserve">
<g>
	<path fill="#333333" d="M82.334,13.157l0.01-0.038L21.022,2l0.102,11.157h-9.612v16.977H6.943v14.89h4.568V62h71.545V13.157H82.334
		z M22.847,4.166l49.591,8.991H22.929L22.847,4.166z M8.747,43.219v-11.28h2.765h1.805H24.86v11.28H13.316h-1.805H8.747z
		 M81.252,60.195H13.316V45.024h13.349v-14.89H13.316V14.962h7.824h1.806h57.128h1.178v2.966V60.195z"/>
	<path fill="#333333" d="M48.66,28.545c-2.247,0-4.141,0.875-5.681,2.627c-1.542,1.751-2.313,4.004-2.313,6.762v0.96
		c0,2.746,0.776,4.971,2.33,6.675c1.553,1.705,3.586,2.557,6.099,2.557c1.502,0,2.763-0.215,3.787-0.646
		c1.024-0.43,1.89-1.019,2.601-1.763l-0.89-1.431c-0.781,0.722-1.604,1.248-2.47,1.58c-0.867,0.331-1.876,0.497-3.028,0.497
		c-1.92,0-3.455-0.705-4.606-2.112c-1.152-1.406-1.729-3.193-1.729-5.357v-0.506h13.333v-1.779c0-2.503-0.649-4.471-1.945-5.908
		C52.851,29.263,51.021,28.545,48.66,28.545z M54.018,36.625H42.831c0.232-1.861,0.869-3.377,1.911-4.546
		c1.039-1.169,2.347-1.754,3.918-1.754c1.686,0,3.001,0.543,3.944,1.632c0.941,1.088,1.413,2.47,1.413,4.145V36.625z"/>
</g>
</svg>
