<?xml version="1.0" encoding="utf-8"?>
<!-- Generator: Adobe Illustrator 16.0.0, SVG Export Plug-In . SVG Version: 6.00 Build 0)  -->
<!DOCTYPE svg PUBLIC "-//W3C//DTD SVG 1.1//EN" "http://www.w3.org/Graphics/SVG/1.1/DTD/svg11.dtd">
<svg version="1.1" id="Layer_1" xmlns="http://www.w3.org/2000/svg" xmlns:xlink="http://www.w3.org/1999/xlink" x="0px" y="0px"
	 width="90px" height="64px" viewBox="0 0 90 64" enable-background="new 0 0 90 64" xml:space="preserve">
<g>
	<path fill="#333333" d="M67.817,2.6H22.184c-9.544,0-17.309,7.765-17.309,17.309v13.078c0,9.547,7.765,17.314,17.309,17.314h33.978
		l8.88,10.754c0.183,0.22,0.45,0.346,0.735,0.346c0.052,0,0.104-0.005,0.157-0.014c0.335-0.056,0.616-0.288,0.735-0.606
		l4.023-10.794c8.233-1.386,14.433-8.681,14.433-17V19.908C85.125,10.364,77.36,2.6,67.817,2.6z M22.184,4.506h45.634
		c8.492,0,15.401,6.91,15.401,15.402v13.078c0,7.643-5.739,14.176-13.35,15.196c-0.349,0.047-0.643,0.281-0.768,0.611l-3.642,9.772
		l-8.115-9.826c-0.184-0.22-0.451-0.346-0.734-0.346H22.184c-8.493,0-15.402-6.912-15.402-15.408V19.908
		C6.781,11.416,13.691,4.506,22.184,4.506z"/>
	<path fill="#333333" d="M29.483,34.863c0.485,0,0.95-0.041,1.383-0.123c0.407-0.077,0.814-0.192,1.209-0.342l3.386,3.203
		l1.194-1.078L33.563,33.6c0.924-0.671,1.65-1.557,2.159-2.635c0.532-1.124,0.802-2.426,0.802-3.869v-2.875
		c0-2.285-0.646-4.172-1.918-5.608c-1.277-1.441-3.004-2.172-5.135-2.172c-2.099,0-3.796,0.731-5.044,2.173
		c-1.244,1.436-1.875,3.322-1.875,5.607v2.875c0,2.293,0.633,4.18,1.881,5.608C25.687,34.137,27.385,34.863,29.483,34.863z
		 M29.472,17.965c1.667,0,2.988,0.577,3.925,1.713c0.943,1.145,1.422,2.665,1.422,4.518v2.899c0,1.878-0.474,3.409-1.409,4.55
		c-0.93,1.132-2.25,1.706-3.926,1.706c-1.627,0-2.917-0.576-3.833-1.712c-0.923-1.144-1.391-2.673-1.391-4.543v-2.899
		c0-1.854,0.466-3.375,1.386-4.52C26.557,18.541,27.845,17.965,29.472,17.965z"/>
	<path fill="#333333" d="M44.601,34.863c0.975,0,1.881-0.173,2.692-0.514c0.771-0.321,1.51-0.792,2.197-1.398l1.434,1.658h2.078
		l-2.417-2.811c0.542-0.706,0.96-1.482,1.243-2.309c0.294-0.858,0.443-1.835,0.443-2.904v-0.125h-1.585v0.125
		c0,0.808-0.106,1.563-0.315,2.244c-0.196,0.63-0.472,1.221-0.822,1.759l-4.805-5.609l1.826-1.401
		c0.7-0.546,1.242-1.086,1.609-1.604c0.372-0.529,0.562-1.186,0.562-1.952c0-1.05-0.352-1.919-1.045-2.583
		c-0.691-0.663-1.66-1-2.877-1c-1.305,0-2.336,0.357-3.065,1.061c-0.73,0.704-1.101,1.736-1.101,3.068
		c0,0.733,0.159,1.443,0.473,2.11c0.297,0.63,0.769,1.348,1.402,2.137l-0.077,0.056c-1.137,0.829-2.006,1.637-2.585,2.404
		c-0.588,0.779-0.887,1.69-0.887,2.708c0,1.495,0.504,2.695,1.499,3.568C41.466,34.422,42.854,34.863,44.601,34.863z M42.991,18.66
		c0.414-0.486,1.029-0.732,1.829-0.732c0.729,0,1.299,0.198,1.694,0.59c0.399,0.395,0.594,0.888,0.594,1.506
		c0,0.44-0.094,0.852-0.278,1.224c-0.186,0.375-0.512,0.742-0.969,1.09l-2.051,1.53c-0.486-0.609-0.851-1.184-1.083-1.711
		c-0.243-0.548-0.366-1.09-0.366-1.611C42.359,19.786,42.572,19.151,42.991,18.66z M43.465,25.967c0,0,0.001,0.001,0.002,0.002
		c0.026,0.027,0.065,0.063,0.104,0.092l4.944,5.757c-0.546,0.505-1.146,0.894-1.785,1.154c-0.674,0.277-1.391,0.417-2.13,0.417
		c-1.294,0-2.282-0.323-2.934-0.959c-0.651-0.636-0.981-1.459-0.981-2.446c0-0.503,0.152-1.054,0.453-1.636
		c0.301-0.583,0.929-1.265,1.865-2.025L43.465,25.967z"/>
	<path fill="#333333" d="M57.158,29.623h7.883l1.83,4.986h1.772l-6.723-17.833l-0.03-0.081h-1.545L53.606,34.44l-0.064,0.169h1.772
		L57.158,29.623z M57.713,28.136l3.41-9.171l3.365,9.171H57.713z"/>
</g>
</svg>
