<?xml version="1.0" encoding="utf-8"?>
<!-- Generator: Adobe Illustrator 16.0.0, SVG Export Plug-In . SVG Version: 6.00 Build 0)  -->
<!DOCTYPE svg PUBLIC "-//W3C//DTD SVG 1.1//EN" "http://www.w3.org/Graphics/SVG/1.1/DTD/svg11.dtd">
<svg version="1.1" id="Layer_1" xmlns="http://www.w3.org/2000/svg" xmlns:xlink="http://www.w3.org/1999/xlink" x="0px" y="0px"
	 width="90px" height="64px" viewBox="0 0 90 64" enable-background="new 0 0 90 64" xml:space="preserve">
<g>
	<path fill="#333333" d="M54.951,30.513l-6.344-1.131L45.574,23.7h-1.345l-3.034,5.682l-6.343,1.131l-0.414,1.277l4.465,4.644
		l-0.884,6.381l1.088,0.79l5.795-2.813l5.793,2.813l1.088-0.79L50.9,36.434l4.467-4.644L54.951,30.513z M49.545,35.644l-0.205,0.634
		l0.738,5.334l-4.845-2.352H44.57l-4.846,2.352l0.738-5.334l-0.205-0.634l-3.733-3.881l5.301-0.946l0.539-0.391l2.538-4.75
		l2.538,4.75l0.539,0.391l5.303,0.946L49.545,35.644z"/>
	<path fill="#333333" d="M71.746,16.495L57.531,2.279l-0.373,0.154C56.988,2.178,56.711,2,56.381,2H21.387
		c-1.728,0-3.133,1.406-3.133,3.134v53.733c0,1.728,1.406,3.133,3.133,3.133h47.029c1.729,0,3.133-1.405,3.133-3.133v-41.7
		c0-0.043-0.018-0.08-0.023-0.121L71.746,16.495z M57.809,5.25l10.967,10.965h-9.736c-0.678,0-1.23-0.552-1.23-1.23V5.25z
		 M68.416,60.096H21.387c-0.667,0-1.229-0.563-1.229-1.229V5.134c0-0.678,0.552-1.23,1.229-1.23h34.52v11.082
		c0,1.729,1.404,3.134,3.133,3.134h10.605v40.748C69.645,59.532,69.082,60.096,68.416,60.096z"/>
</g>
</svg>
