<?xml version="1.0" encoding="utf-8"?>
<!-- Generator: Adobe Illustrator 16.0.0, SVG Export Plug-In . SVG Version: 6.00 Build 0)  -->
<!DOCTYPE svg PUBLIC "-//W3C//DTD SVG 1.1//EN" "http://www.w3.org/Graphics/SVG/1.1/DTD/svg11.dtd">
<svg version="1.1" id="Layer_1" xmlns="http://www.w3.org/2000/svg" xmlns:xlink="http://www.w3.org/1999/xlink" x="0px" y="0px"
	 width="90px" height="64px" viewBox="0 0 90 64" enable-background="new 0 0 90 64" xml:space="preserve">
<path fill="#333333" d="M9.807,41.09c-0.155,0.158-0.243,0.369-0.242,0.59s0.089,0.434,0.246,0.588L29.466,61.76
	C29.622,61.914,29.832,62,30.05,62c0.005,0,0.009,0,0.014,0c0.224-0.004,0.436-0.098,0.59-0.262l9.032-9.555h39.917l0,0h0.002
	c0.002,0,0.002,0,0.004,0c0.105-0.002,0.205-0.027,0.299-0.064c0.012-0.006,0.025-0.002,0.039-0.008
	c0.025-0.012,0.045-0.031,0.068-0.045c0.031-0.018,0.063-0.035,0.09-0.057c0.039-0.029,0.072-0.064,0.107-0.1
	c0.02-0.023,0.041-0.045,0.059-0.07c0.031-0.045,0.057-0.092,0.08-0.141c0.01-0.02,0.021-0.033,0.029-0.051
	c0.002-0.008,0.002-0.016,0.004-0.021c0.02-0.055,0.029-0.111,0.035-0.168c0.004-0.025,0.01-0.051,0.012-0.074
	c0-0.012,0.004-0.021,0.004-0.031V12.646c0-0.01-0.004-0.02-0.004-0.03c-0.002-0.024-0.008-0.049-0.012-0.074
	c-0.006-0.058-0.016-0.114-0.035-0.168c-0.002-0.006-0.002-0.013-0.004-0.02c-0.006-0.018-0.02-0.032-0.027-0.049
	c-0.023-0.052-0.051-0.101-0.082-0.146c-0.018-0.023-0.039-0.044-0.059-0.065c-0.033-0.038-0.068-0.072-0.109-0.103
	c-0.027-0.021-0.057-0.038-0.086-0.056c-0.025-0.014-0.045-0.034-0.07-0.045c-0.018-0.007-0.035-0.009-0.051-0.015
	c-0.035-0.013-0.07-0.022-0.107-0.03c-0.045-0.011-0.088-0.018-0.133-0.021c-0.018-0.001-0.035-0.008-0.053-0.008H39.686
	L30.654,2.26C30.5,2.098,30.288,2.004,30.064,2c-0.224-0.001-0.439,0.083-0.598,0.241L9.811,21.732
	c-0.157,0.155-0.245,0.366-0.246,0.587c-0.001,0.221,0.087,0.433,0.242,0.589L18.87,32L9.807,41.09z M38.174,12.634L20.042,30.823
	l-8.471-8.498L30.031,4.02L38.174,12.634z M78.772,49.516L58.882,31.999l19.891-17.515V49.516z M21.215,32l18.1-18.158
	l17.167,18.157l-17.167,18.16L21.215,32z M77.401,13.476L57.677,30.845L41.262,13.476H77.401z M41.262,50.523l9.698-10.262
	l6.717-7.109l19.725,17.371H41.262z M11.572,41.674l8.471-8.498l18.132,18.189l-8.144,8.615L11.572,41.674z"/>
</svg>
