<?xml version="1.0" encoding="utf-8"?>
<!-- Generator: Adobe Illustrator 16.0.0, SVG Export Plug-In . SVG Version: 6.00 Build 0)  -->
<!DOCTYPE svg PUBLIC "-//W3C//DTD SVG 1.1//EN" "http://www.w3.org/Graphics/SVG/1.1/DTD/svg11.dtd">
<svg version="1.1" id="Layer_1" xmlns="http://www.w3.org/2000/svg" xmlns:xlink="http://www.w3.org/1999/xlink" x="0px" y="0px"
	 width="195.59px" height="45.35px" viewBox="0 0 195.59 45.35" enable-background="new 0 0 195.59 45.35" xml:space="preserve">
<path fill="#363636" d="M192.489,10.326l-9.182,2.927c-1.227-3.471-3.824-5.211-7.791-5.211c-4.238,0-6.353,1.32-6.353,3.949
	c0,1.051,0.396,1.941,1.189,2.67c0.798,0.728,2.597,1.365,5.397,1.916c4.678,0.93,8.107,1.85,10.283,2.77
	c2.178,0.918,4.008,2.4,5.506,4.444c1.494,2.04,2.24,4.327,2.24,6.85c0,3.96-1.605,7.379-4.807,10.269
	c-3.203,2.887-7.951,4.328-14.244,4.328c-4.72,0-8.737-1.021-12.052-3.068c-3.316-2.049-5.5-5.092-6.555-9.122l10.008-2.156
	c1.119,4.084,4.223,6.124,9.317,6.124c2.457,0,4.291-0.455,5.5-1.367c1.205-0.908,1.811-1.993,1.811-3.257
	c0-1.286-0.551-2.28-1.652-2.985c-1.1-0.707-3.219-1.371-6.354-1.99c-5.856-1.156-10.022-2.738-12.511-4.741
	c-2.488-2.002-3.732-4.935-3.732-8.79c0-3.898,1.49-7.188,4.457-9.866C165.945,1.341,169.982,0,175.079,0
	C184.106,0,189.909,3.442,192.489,10.326z"/>
<path fill="#363636" d="M101.963,4.479c2.695,2.256,7.92,7.854,7.92,17.721c0,2.617-0.447,9.615-5.164,15.463
	c-2.641,3.225-7.865,7.609-17.244,7.609c-8.535,0-13.424-3.773-15.839-6.634c-1.967-2.256-5.449-7.735-5.449-15.895
	c0-2.677,0.449-10.35,5.897-16.192c5.896-6.396,13.876-6.454,16.396-6.454C93.538,0.098,97.919,1.134,101.963,4.479z M83.651,11.36
	c-2.522,1.277-5.896,4.379-5.896,11.445c0,0.854,0,2.924,0.733,5.177c1.458,4.566,5.054,7.242,9.493,7.242
	c2.748,0,5.557-0.974,7.468-3.286c2.079-2.496,2.866-6.273,2.866-9.496c0-7.188-3.763-10.472-6.293-11.508
	c-1.516-0.611-3.032-0.67-3.651-0.67C87.535,10.265,85.675,10.323,83.651,11.36z"/>
<path fill="#363636" d="M147.785,4.479c2.693,2.256,7.92,7.854,7.92,17.721c0,2.617-0.447,9.615-5.166,15.463
	c-2.643,3.225-7.863,7.609-17.244,7.609c-8.533,0-13.422-3.773-15.838-6.634c-1.967-2.256-5.449-7.735-5.449-15.895
	c0-2.677,0.447-10.35,5.898-16.192c5.895-6.396,13.875-6.454,16.398-6.454C139.361,0.098,143.74,1.134,147.785,4.479z
	 M129.475,11.36c-2.525,1.277-5.898,4.379-5.898,11.445c0,0.854,0,2.924,0.734,5.177c1.459,4.566,5.053,7.242,9.49,7.242
	c2.75,0,5.561-0.974,7.467-3.286c2.082-2.496,2.869-6.273,2.869-9.496c0-7.188-3.764-10.472-6.293-11.508
	c-1.516-0.611-3.033-0.67-3.65-0.67C133.354,10.265,131.498,10.323,129.475,11.36z"/>
<path fill="#057F89" d="M28.051,1.486V10.2h-16.7v8.404H27.3v8.777H11.351v8.43h18.808v8.645H1V1.486H28.051z"/>
<path fill="#363636" d="M66.294,1.486v8.651H54.327v34.99H44.09v-34.99H32.053V1.486H66.294z"/>
</svg>
