<?xml version="1.0" encoding="utf-8"?>
<!-- Generator: Adobe Illustrator 16.0.0, SVG Export Plug-In . SVG Version: 6.00 Build 0)  -->
<!DOCTYPE svg PUBLIC "-//W3C//DTD SVG 1.1//EN" "http://www.w3.org/Graphics/SVG/1.1/DTD/svg11.dtd">
<svg version="1.1" id="Layer_1" xmlns="http://www.w3.org/2000/svg" xmlns:xlink="http://www.w3.org/1999/xlink" x="0px" y="0px"
	 width="39.69px" height="28.35px" viewBox="0 0 39.69 28.35" enable-background="new 0 0 39.69 28.35" xml:space="preserve">
<polygon fill="none" stroke="#333333" stroke-width="1.2" stroke-linecap="round" stroke-linejoin="round" stroke-miterlimit="10" points="
	33.811,13.68 31.235,6.869 24.682,6.869 24.682,23.266 31.235,23.266 38.258,23.266 38.258,13.68 "/>
<polygon fill="none" stroke="#333333" stroke-width="1.2" stroke-linecap="round" stroke-linejoin="round" stroke-miterlimit="10" points="
	33.811,13.68 31.235,6.869 24.682,6.869 24.682,23.266 31.235,23.266 38.258,23.266 38.258,13.68 "/>
<rect x="2.438" y="17.688" fill="#FFFFFF" stroke="#333333" stroke-width="1.2" stroke-linecap="round" stroke-linejoin="round" stroke-miterlimit="10" width="23.245" height="5.577"/>
<rect x="2.438" y="17.688" fill="#FFFFFF" stroke="#333333" stroke-width="1.2" stroke-linecap="round" stroke-linejoin="round" stroke-miterlimit="10" width="23.245" height="5.577"/>
<rect x="2.437" y="2.482" fill="#FFFFFF" stroke="#333333" stroke-width="1.2" stroke-linecap="round" stroke-linejoin="round" stroke-miterlimit="10" width="23.245" height="15.206"/>
<rect x="2.437" y="2.482" fill="#FFFFFF" stroke="#333333" stroke-width="1.2" stroke-linecap="round" stroke-linejoin="round" stroke-miterlimit="10" width="23.245" height="15.206"/>
<path fill="#FFFFFF" stroke="#333333" stroke-width="1.2" stroke-linecap="round" stroke-linejoin="round" stroke-miterlimit="10" d="
	M10.902,23.266c0,1.503-1.218,2.722-2.721,2.722S5.46,24.769,5.46,23.266s1.219-2.721,2.722-2.721S10.902,21.763,10.902,23.266"/>
<circle fill="#FFFFFF" stroke="#333333" stroke-width="1.2" stroke-linecap="round" stroke-linejoin="round" stroke-miterlimit="10" cx="8.181" cy="23.266" r="2.721"/>
<path fill="none" stroke="#333333" stroke-width="1.2" stroke-linecap="round" stroke-linejoin="round" stroke-miterlimit="10" d="
	M34.19,23.266c0,1.503-1.218,2.722-2.721,2.722s-2.721-1.219-2.721-2.722s1.218-2.721,2.721-2.721S34.19,21.763,34.19,23.266"/>
<circle fill="#FFFFFF" stroke="#333333" stroke-width="1.2" stroke-linecap="round" stroke-linejoin="round" stroke-miterlimit="10" cx="31.47" cy="23.266" r="2.721"/>
</svg>
