<?xml version="1.0" encoding="utf-8"?>
<!-- Generator: Adobe Illustrator 16.0.0, SVG Export Plug-In . SVG Version: 6.00 Build 0)  -->
<!DOCTYPE svg PUBLIC "-//W3C//DTD SVG 1.1//EN" "http://www.w3.org/Graphics/SVG/1.1/DTD/svg11.dtd">
<svg version="1.1" id="Layer_1" xmlns="http://www.w3.org/2000/svg" xmlns:xlink="http://www.w3.org/1999/xlink" x="0px" y="0px"
	 width="22px" height="22px" viewBox="0 0 22 22" enable-background="new 0 0 22 22" xml:space="preserve">
<g>
	<path fill="#222222" d="M11,0C4.925,0,0,4.925,0,11s4.925,11,11,11s11-4.925,11-11S17.075,0,11,0z M11,20.06
		c-4.996,0-9.06-4.063-9.06-9.06c0-4.996,4.064-9.06,9.06-9.06c4.996,0,9.06,4.064,9.06,9.06C20.06,15.996,15.996,20.06,11,20.06z"
		/>
	<path fill="#222222" d="M17.377,6.26c-0.409-0.347-1.021-0.297-1.367,0.112l-6.303,7.429L4.951,8.829
		c-0.37-0.388-0.985-0.4-1.372-0.03c-0.387,0.37-0.401,0.984-0.031,1.372l6.245,6.529l7.697-9.072
		C17.836,7.219,17.786,6.607,17.377,6.26z"/>
</g>
</svg>
