<?xml version="1.0" encoding="utf-8"?>
<!-- Generator: Adobe Illustrator 16.0.0, SVG Export Plug-In . SVG Version: 6.00 Build 0)  -->
<!DOCTYPE svg PUBLIC "-//W3C//DTD SVG 1.1//EN" "http://www.w3.org/Graphics/SVG/1.1/DTD/svg11.dtd">
<svg version="1.1" id="Layer_1" xmlns="http://www.w3.org/2000/svg" xmlns:xlink="http://www.w3.org/1999/xlink" x="0px" y="0px"
	 width="40px" height="120px" viewBox="0 0 40 120" enable-background="new 0 0 40 120" xml:space="preserve">
<g>
	<path fill="#D6D5D5" d="M31.721,38.318c-0.08,0-0.159-0.019-0.232-0.058L20,32.219L8.512,38.26
		c-0.073,0.039-0.153,0.058-0.233,0.058c-0.104,0-0.207-0.032-0.294-0.096c-0.154-0.112-0.231-0.301-0.199-0.489L9.98,24.941
		l-9.293-9.06c-0.136-0.133-0.185-0.332-0.126-0.512c0.059-0.181,0.215-0.313,0.404-0.34l12.843-1.866l5.745-11.639
		C19.636,1.354,19.81,1.246,20,1.246s0.364,0.108,0.448,0.279l5.745,11.639l12.844,1.866c0.188,0.027,0.345,0.159,0.403,0.34
		c0.059,0.181,0.01,0.379-0.127,0.512l-9.294,9.06l2.194,12.792c0.032,0.188-0.045,0.377-0.199,0.489
		C31.928,38.286,31.824,38.318,31.721,38.318z"/>
	<path fill="#D6D5D5" d="M20,1.746l5.861,11.875l13.104,1.903l-9.482,9.244l2.238,13.051L20,31.654L8.279,37.818l2.238-13.051
		l-9.481-9.244l13.103-1.903L20,1.746 M20,0.746L20,0.746c-0.381,0-0.728,0.216-0.896,0.558l-5.628,11.403L0.893,14.534
		c-0.377,0.055-0.69,0.319-0.808,0.681s-0.02,0.759,0.253,1.025l9.105,8.877L7.293,37.649c-0.064,0.375,0.09,0.754,0.398,0.978
		c0.174,0.126,0.381,0.191,0.588,0.191c0.159,0,0.319-0.038,0.465-0.115L20,32.784l11.255,5.919
		c0.146,0.077,0.307,0.115,0.466,0.115c0.207,0,0.413-0.064,0.588-0.191c0.308-0.224,0.462-0.603,0.397-0.978l-2.149-12.533
		l9.106-8.876c0.272-0.266,0.37-0.664,0.253-1.025c-0.118-0.362-0.431-0.626-0.808-0.681l-12.583-1.828L20.896,1.303
		C20.728,0.962,20.38,0.746,20,0.746L20,0.746z"/>
</g>
<g>
	<path fill="#FFFFFF" d="M31.721,118.09c-0.08,0-0.159-0.019-0.232-0.058L20,111.99l-11.488,6.042
		c-0.073,0.039-0.153,0.058-0.233,0.058c-0.104,0-0.207-0.032-0.294-0.096c-0.154-0.111-0.231-0.301-0.199-0.489l2.194-12.791
		l-9.293-9.061c-0.136-0.133-0.185-0.332-0.126-0.513c0.059-0.182,0.215-0.313,0.404-0.341l12.843-1.865l5.745-11.639
		c0.084-0.17,0.258-0.278,0.448-0.278s0.364,0.108,0.448,0.278l5.745,11.639L39.037,94.8c0.188,0.027,0.345,0.159,0.403,0.341
		c0.059,0.181,0.01,0.38-0.127,0.513l-9.294,9.061l2.194,12.791c0.032,0.188-0.045,0.378-0.199,0.489
		C31.928,118.058,31.824,118.09,31.721,118.09z"/>
	<path fill="#676767" d="M20,81.518l5.861,11.874l13.104,1.903l-9.482,9.244l2.238,13.051L20,111.426L8.279,117.59l2.238-13.051
		l-9.481-9.244l13.103-1.903L20,81.518 M20,80.518L20,80.518c-0.381,0-0.728,0.216-0.896,0.558l-5.628,11.402L0.893,94.306
		c-0.377,0.055-0.69,0.318-0.808,0.68c-0.118,0.362-0.02,0.76,0.253,1.025l9.105,8.877l-2.149,12.533
		c-0.064,0.375,0.09,0.754,0.398,0.978c0.174,0.127,0.381,0.191,0.588,0.191c0.159,0,0.319-0.038,0.465-0.115L20,112.556
		l11.255,5.919c0.146,0.077,0.307,0.115,0.466,0.115c0.207,0,0.413-0.064,0.588-0.191c0.308-0.224,0.462-0.603,0.397-0.978
		l-2.149-12.533l9.106-8.877c0.272-0.266,0.37-0.663,0.253-1.024c-0.118-0.362-0.431-0.626-0.808-0.681l-12.583-1.828l-5.629-11.402
		C20.728,80.733,20.38,80.518,20,80.518L20,80.518z"/>
</g>
<g>
	<path fill="#1D8B93" d="M31.721,76.74c-0.08,0-0.159-0.019-0.232-0.058L20,70.641L8.512,76.683
		c-0.073,0.039-0.153,0.058-0.233,0.058c-0.104,0-0.207-0.032-0.294-0.096c-0.154-0.111-0.231-0.301-0.199-0.489L9.98,63.364
		l-9.293-9.061c-0.136-0.133-0.185-0.332-0.126-0.512c0.059-0.181,0.215-0.313,0.404-0.34l12.843-1.867l5.745-11.637
		c0.084-0.171,0.258-0.279,0.448-0.279s0.364,0.108,0.448,0.279l5.745,11.637l12.844,1.867c0.188,0.027,0.345,0.159,0.403,0.34
		c0.059,0.181,0.01,0.379-0.127,0.512l-9.294,9.061l2.194,12.791c0.032,0.188-0.045,0.378-0.199,0.489
		C31.928,76.708,31.824,76.74,31.721,76.74z"/>
	<path fill="#1D8B93" d="M20,40.168l5.861,11.873l13.104,1.904l-9.482,9.244l2.238,13.051L20,70.076L8.279,76.24l2.238-13.051
		l-9.481-9.244l13.103-1.904L20,40.168 M20,39.168L20,39.168c-0.381,0-0.728,0.216-0.896,0.557l-5.628,11.402L0.892,52.956
		c-0.376,0.055-0.689,0.319-0.807,0.681s-0.02,0.759,0.253,1.025l9.105,8.877L7.293,76.071c-0.064,0.375,0.09,0.754,0.398,0.978
		c0.174,0.127,0.381,0.191,0.588,0.191c0.159,0,0.319-0.038,0.465-0.115L20,71.206l11.255,5.919
		c0.146,0.077,0.307,0.115,0.466,0.115c0.207,0,0.413-0.064,0.588-0.191c0.308-0.224,0.462-0.603,0.397-0.978l-2.149-12.533
		l9.106-8.877c0.272-0.266,0.37-0.663,0.253-1.025c-0.118-0.362-0.431-0.626-0.808-0.681l-12.583-1.829l-5.629-11.402
		C20.728,39.384,20.38,39.168,20,39.168L20,39.168z"/>
</g>
</svg>
