<?xml version="1.0" encoding="utf-8"?>
<!-- Generator: Adobe Illustrator 16.0.0, SVG Export Plug-In . SVG Version: 6.00 Build 0)  -->
<!DOCTYPE svg PUBLIC "-//W3C//DTD SVG 1.1//EN" "http://www.w3.org/Graphics/SVG/1.1/DTD/svg11.dtd">
<svg version="1.1" id="Layer_1" xmlns="http://www.w3.org/2000/svg" xmlns:xlink="http://www.w3.org/1999/xlink" x="0px" y="0px"
	 width="40px" height="40px" viewBox="0 0 40 40" enable-background="new 0 0 40 40" xml:space="preserve">
<polygon fill="#FFFFFF" points="20,1.964 25.861,13.838 38.965,15.741 29.482,24.984 31.721,38.036 20,31.872 8.279,38.036 
	10.518,24.984 1.036,15.741 14.139,13.838 "/>
<path fill="#BFBFBF" d="M20,1.964l5.861,11.874l13.104,1.903l-9.482,9.243l2.238,13.052L20,31.872L8.279,38.036l2.238-13.052
	l-9.481-9.243l13.103-1.903L20,1.964 M20,0.964L20,0.964c-0.381,0-0.728,0.216-0.896,0.558l-5.628,11.402L0.893,14.751
	c-0.377,0.055-0.69,0.319-0.808,0.681c-0.118,0.362-0.02,0.759,0.253,1.025l9.105,8.877l-2.15,12.533
	c-0.064,0.375,0.09,0.754,0.398,0.979c0.174,0.127,0.381,0.19,0.588,0.19c0.159,0,0.319-0.038,0.465-0.115L20,33.002l11.255,5.919
	c0.146,0.077,0.308,0.115,0.466,0.115c0.207,0,0.413-0.063,0.588-0.19c0.309-0.225,0.463-0.604,0.397-0.979l-2.149-12.533
	l9.106-8.877c0.272-0.266,0.37-0.663,0.253-1.025c-0.118-0.362-0.432-0.626-0.809-0.681l-12.582-1.828L20.896,1.521
	C20.729,1.18,20.38,0.964,20,0.964L20,0.964z"/>
</svg>
