<?xml version="1.0" encoding="utf-8"?>
<!-- Generator: Adobe Illustrator 16.0.0, SVG Export Plug-In . SVG Version: 6.00 Build 0)  -->
<!DOCTYPE svg PUBLIC "-//W3C//DTD SVG 1.1//EN" "http://www.w3.org/Graphics/SVG/1.1/DTD/svg11.dtd">
<svg version="1.1" id="Layer_1" xmlns="http://www.w3.org/2000/svg" xmlns:xlink="http://www.w3.org/1999/xlink" x="0px" y="0px"
	 width="40px" height="40px" viewBox="0 0 40 40" enable-background="new 0 0 40 40" xml:space="preserve">
<path fill="#D6D5D5" d="M39.916,15.433c-0.118-0.362-0.431-0.626-0.808-0.681l-12.583-1.828L20.896,1.521
	C20.728,1.18,20.38,0.964,20,0.964c-0.381,0-0.728,0.216-0.896,0.558l-5.628,11.402L0.892,14.752
	c-0.377,0.055-0.69,0.318-0.808,0.681c-0.118,0.361-0.02,0.759,0.253,1.024l9.105,8.877l-2.15,12.533
	c-0.064,0.375,0.09,0.754,0.398,0.978c0.174,0.127,0.381,0.191,0.588,0.191c0.159,0,0.319-0.038,0.465-0.115L20,33.002l11.255,5.919
	c0.146,0.077,0.307,0.115,0.466,0.115c0.207,0,0.413-0.064,0.588-0.191c0.308-0.224,0.462-0.603,0.397-0.978l-2.149-12.533
	l9.106-8.877C39.936,16.191,40.033,15.794,39.916,15.433z"/>
</svg>
