<?xml version="1.0" encoding="utf-8"?>
<!-- Generator: Adobe Illustrator 16.0.0, SVG Export Plug-In . SVG Version: 6.00 Build 0)  -->
<!DOCTYPE svg PUBLIC "-//W3C//DTD SVG 1.1//EN" "http://www.w3.org/Graphics/SVG/1.1/DTD/svg11.dtd">
<svg version="1.1" id="Layer_1" xmlns="http://www.w3.org/2000/svg" xmlns:xlink="http://www.w3.org/1999/xlink" x="0px" y="0px"
	 width="40px" height="40px" viewBox="0 0 40 40" enable-background="new 0 0 40 40" xml:space="preserve">
<path fill="#676767" d="M20,1.964l5.862,11.874l13.104,1.903l-9.482,9.244l2.238,13.051L20,31.872L8.279,38.036l2.238-13.051
	l-9.481-9.244l13.103-1.903L20,1.964 M20,0.964L20,0.964c-0.381,0-0.728,0.216-0.896,0.558l-5.628,11.402L0.892,14.751
	c-0.377,0.055-0.69,0.319-0.808,0.681s-0.02,0.759,0.253,1.025l9.105,8.877l-2.15,12.533c-0.064,0.375,0.09,0.754,0.398,0.978
	c0.174,0.127,0.381,0.191,0.588,0.191c0.159,0,0.319-0.038,0.465-0.115L20,33.002l11.255,5.919c0.146,0.077,0.307,0.115,0.466,0.115
	c0.207,0,0.413-0.064,0.588-0.191c0.308-0.224,0.462-0.603,0.397-0.978l-2.149-12.533l9.106-8.877
	c0.272-0.266,0.37-0.663,0.253-1.025c-0.118-0.362-0.431-0.626-0.808-0.681l-12.583-1.828L20.896,1.521
	C20.728,1.18,20.38,0.964,20,0.964L20,0.964z"/>
</svg>
